<?xml version="1.0" encoding="UTF-8" standalone="no"?>
<!DOCTYPE svg PUBLIC "-//W3C//DTD SVG 1.1//EN"
 "http://www.w3.org/Graphics/SVG/1.1/DTD/svg11.dtd">
<!-- Generated by graphviz version 2.40.1 (20161225.0304)
 -->
<!-- Title: main.auth_subjects Pages: 1 -->
<svg width="396pt" height="562pt"
 viewBox="0.00 0.00 396.00 562.00" xmlns="http://www.w3.org/2000/svg" xmlns:xlink="http://www.w3.org/1999/xlink">
<g id="graph0" class="graph" transform="scale(1 1) rotate(0) translate(4 558)">
<title>main.auth_subjects</title>
<polygon fill="#ffffff" stroke="transparent" points="-4,4 -4,-558 392,-558 392,4 -4,4"/>
<!-- main.auth_subjects -->
<g id="node1" class="node">
<title>main.auth_subjects</title>
<polygon fill="#efefef" stroke="transparent" points="46,-472.5 46,-507.5 342,-507.5 342,-472.5 46,-472.5"/>
<polygon fill="none" stroke="#000000" points="46,-472.5 46,-507.5 342,-507.5 342,-472.5 46,-472.5"/>
<text text-anchor="start" x="52.6945" y="-485.3" font-family="Arial Bold" font-size="18.00" fill="#000000">main.auth_subjects</text>
<text text-anchor="start" x="207.7375" y="-485.3" font-family="Arial" font-size="14.00" fill="#000000">    </text>
<text text-anchor="start" x="241.9423" y="-485.3" font-family="Arial" font-size="14.00" fill="#666666">[BASE TABLE]</text>
<polygon fill="none" stroke="#000000" points="46,-442.5 46,-472.5 342,-472.5 342,-442.5 46,-442.5"/>
<text text-anchor="start" x="53" y="-453.9" font-family="Arial" font-size="14.00" fill="#000000">id </text>
<text text-anchor="start" x="67.7798" y="-453.9" font-family="Arial" font-size="14.00" fill="#666666">[integer]</text>
<polygon fill="none" stroke="#000000" points="46,-412.5 46,-442.5 342,-442.5 342,-412.5 46,-412.5"/>
<text text-anchor="start" x="53" y="-423.9" font-family="Arial" font-size="14.00" fill="#000000">created_at </text>
<text text-anchor="start" x="123.028" y="-423.9" font-family="Arial" font-size="14.00" fill="#666666">[timestamp with time zone]</text>
<polygon fill="none" stroke="#000000" points="46,-382.5 46,-412.5 342,-412.5 342,-382.5 46,-382.5"/>
<text text-anchor="start" x="53" y="-393.9" font-family="Arial" font-size="14.00" fill="#000000">updated_at </text>
<text text-anchor="start" x="126.9326" y="-393.9" font-family="Arial" font-size="14.00" fill="#666666">[timestamp with time zone]</text>
<polygon fill="none" stroke="#000000" points="46,-352.5 46,-382.5 342,-382.5 342,-352.5 46,-352.5"/>
<text text-anchor="start" x="53" y="-363.9" font-family="Arial" font-size="14.00" fill="#000000">user_id </text>
<text text-anchor="start" x="102.7882" y="-363.9" font-family="Arial" font-size="14.00" fill="#666666">[integer]</text>
<polygon fill="none" stroke="#000000" points="46,-322.5 46,-352.5 342,-352.5 342,-322.5 46,-322.5"/>
<text text-anchor="start" x="53" y="-333.9" font-family="Arial" font-size="14.00" fill="#000000">subject </text>
<text text-anchor="start" x="101.2356" y="-333.9" font-family="Arial" font-size="14.00" fill="#666666">[text]</text>
<polygon fill="none" stroke="#000000" stroke-width="3" points="44.5,-321.5 44.5,-509.5 343.5,-509.5 343.5,-321.5 44.5,-321.5"/>
</g>
<!-- main.users -->
<g id="node2" class="node">
<title>main.users</title>
<polygon fill="#efefef" stroke="transparent" points="52,-162.5 52,-197.5 335,-197.5 335,-162.5 52,-162.5"/>
<polygon fill="none" stroke="#000000" points="52,-162.5 52,-197.5 335,-197.5 335,-162.5 52,-162.5"/>
<text text-anchor="start" x="85.7132" y="-175.3" font-family="Arial Bold" font-size="18.00" fill="#000000">main.users</text>
<text text-anchor="start" x="173.7188" y="-175.3" font-family="Arial" font-size="14.00" fill="#000000">    </text>
<text text-anchor="start" x="207.9236" y="-175.3" font-family="Arial" font-size="14.00" fill="#666666">[BASE TABLE]</text>
<polygon fill="none" stroke="#000000" points="52,-132.5 52,-162.5 335,-162.5 335,-132.5 52,-132.5"/>
<text text-anchor="start" x="59" y="-143.9" font-family="Arial" font-size="14.00" fill="#000000">id    </text>
<text text-anchor="start" x="104.094" y="-143.9" font-family="Arial" font-size="14.00" fill="#666666">[integer]</text>
<polygon fill="none" stroke="#000000" points="52,-102.5 52,-132.5 335,-132.5 335,-102.5 52,-102.5"/>
<text text-anchor="start" x="59" y="-113.9" font-family="Arial" font-size="14.00" fill="#000000">name    </text>
<text text-anchor="start" x="128.2132" y="-113.9" font-family="Arial" font-size="14.00" fill="#666666">[text]</text>
<polygon fill="none" stroke="#000000" points="52,-72.5 52,-102.5 335,-102.5 335,-72.5 52,-72.5"/>
<text text-anchor="start" x="59" y="-83.9" font-family="Arial" font-size="14.00" fill="#000000">created_at    </text>
<text text-anchor="start" x="159.3422" y="-83.9" font-family="Arial" font-size="14.00" fill="#666666">[timestamp with time zone]</text>
<polygon fill="none" stroke="#000000" points="52,-42.5 52,-72.5 335,-72.5 335,-42.5 52,-42.5"/>
<text text-anchor="start" x="58.5344" y="-53.9" font-family="Arial" font-size="14.00" fill="#000000">updated_at    </text>
<text text-anchor="start" x="162.7812" y="-53.9" font-family="Arial" font-size="14.00" fill="#666666">[timestamp with time zone]</text>
</g>
<!-- main.auth_subjects&#45;&gt;main.users -->
<g id="edge1" class="edge">
<title>main.auth_subjects:user_id&#45;&gt;main.users:id</title>
<path fill="none" stroke="#000000" d="M36.0729,-365.9833C8.4417,-356.4495 21.8706,-304.3217 46,-277 131.6825,-179.982 249.3175,-338.018 335,-241 362.5082,-209.8526 376.5556,-147.5 335,-147.5"/>
<polygon fill="#000000" stroke="#000000" points="36.1147,-365.9896 45.3203,-371.9484 41.0574,-366.7448 46,-367.5 46,-367.5 46,-367.5 41.0574,-366.7448 46.6797,-363.0516 36.1147,-365.9896 36.1147,-365.9896"/>
</g>
</g>
</svg>
