<?xml version="1.0" encoding="UTF-8" standalone="no"?>
<!DOCTYPE svg PUBLIC "-//W3C//DTD SVG 1.1//EN"
 "http://www.w3.org/Graphics/SVG/1.1/DTD/svg11.dtd">
<!-- Generated by graphviz version 2.40.1 (20161225.0304)
 -->
<!-- Title: main.users Pages: 1 -->
<svg width="390pt" height="562pt"
 viewBox="0.00 0.00 390.00 562.00" xmlns="http://www.w3.org/2000/svg" xmlns:xlink="http://www.w3.org/1999/xlink">
<g id="graph0" class="graph" transform="scale(1 1) rotate(0) translate(4 558)">
<title>main.users</title>
<polygon fill="#ffffff" stroke="transparent" points="-4,4 -4,-558 386,-558 386,4 -4,4"/>
<!-- main.users -->
<g id="node1" class="node">
<title>main.users</title>
<polygon fill="#efefef" stroke="transparent" points="64,-165.5 64,-200.5 317,-200.5 317,-165.5 64,-165.5"/>
<polygon fill="none" stroke="#000000" points="64,-165.5 64,-200.5 317,-200.5 317,-165.5 64,-165.5"/>
<text text-anchor="start" x="82.7132" y="-178.3" font-family="Arial Bold" font-size="18.00" fill="#000000">main.users</text>
<text text-anchor="start" x="170.7188" y="-178.3" font-family="Arial" font-size="14.00" fill="#000000">    </text>
<text text-anchor="start" x="204.9236" y="-178.3" font-family="Arial" font-size="14.00" fill="#666666">[BASE TABLE]</text>
<polygon fill="none" stroke="#000000" points="64,-135.5 64,-165.5 317,-165.5 317,-135.5 64,-135.5"/>
<text text-anchor="start" x="71" y="-146.9" font-family="Arial" font-size="14.00" fill="#000000">id </text>
<text text-anchor="start" x="85.7798" y="-146.9" font-family="Arial" font-size="14.00" fill="#666666">[integer]</text>
<polygon fill="none" stroke="#000000" points="64,-105.5 64,-135.5 317,-135.5 317,-105.5 64,-105.5"/>
<text text-anchor="start" x="71" y="-116.9" font-family="Arial" font-size="14.00" fill="#000000">name </text>
<text text-anchor="start" x="109.899" y="-116.9" font-family="Arial" font-size="14.00" fill="#666666">[text]</text>
<polygon fill="none" stroke="#000000" points="64,-75.5 64,-105.5 317,-105.5 317,-75.5 64,-75.5"/>
<text text-anchor="start" x="71" y="-86.9" font-family="Arial" font-size="14.00" fill="#000000">created_at </text>
<text text-anchor="start" x="141.028" y="-86.9" font-family="Arial" font-size="14.00" fill="#666666">[timestamp with time zone]</text>
<polygon fill="none" stroke="#000000" points="64,-45.5 64,-75.5 317,-75.5 317,-45.5 64,-45.5"/>
<text text-anchor="start" x="70.6915" y="-56.9" font-family="Arial" font-size="14.00" fill="#000000">updated_at </text>
<text text-anchor="start" x="144.6241" y="-56.9" font-family="Arial" font-size="14.00" fill="#666666">[timestamp with time zone]</text>
<polygon fill="none" stroke="#000000" stroke-width="3" points="62,-44.5 62,-202.5 318,-202.5 318,-44.5 62,-44.5"/>
</g>
<!-- main.auth_subjects -->
<g id="node2" class="node">
<title>main.auth_subjects</title>
<polygon fill="#efefef" stroke="transparent" points="43,-475.5 43,-510.5 339,-510.5 339,-475.5 43,-475.5"/>
<polygon fill="none" stroke="#000000" points="43,-475.5 43,-510.5 339,-510.5 339,-475.5 43,-475.5"/>
<text text-anchor="start" x="49.6945" y="-488.3" font-family="Arial Bold" font-size="18.00" fill="#000000">main.auth_subjects</text>
<text text-anchor="start" x="204.7375" y="-488.3" font-family="Arial" font-size="14.00" fill="#000000">    </text>
<text text-anchor="start" x="238.9423" y="-488.3" font-family="Arial" font-size="14.00" fill="#666666">[BASE TABLE]</text>
<polygon fill="none" stroke="#000000" points="43,-445.5 43,-475.5 339,-475.5 339,-445.5 43,-445.5"/>
<text text-anchor="start" x="50" y="-456.9" font-family="Arial" font-size="14.00" fill="#000000">id    </text>
<text text-anchor="start" x="95.094" y="-456.9" font-family="Arial" font-size="14.00" fill="#666666">[integer]</text>
<polygon fill="none" stroke="#000000" points="43,-415.5 43,-445.5 339,-445.5 339,-415.5 43,-415.5"/>
<text text-anchor="start" x="50" y="-426.9" font-family="Arial" font-size="14.00" fill="#000000">created_at    </text>
<text text-anchor="start" x="150.3422" y="-426.9" font-family="Arial" font-size="14.00" fill="#666666">[timestamp with time zone]</text>
<polygon fill="none" stroke="#000000" points="43,-385.5 43,-415.5 339,-415.5 339,-385.5 43,-385.5"/>
<text text-anchor="start" x="50" y="-396.9" font-family="Arial" font-size="14.00" fill="#000000">updated_at    </text>
<text text-anchor="start" x="154.2468" y="-396.9" font-family="Arial" font-size="14.00" fill="#666666">[timestamp with time zone]</text>
<polygon fill="none" stroke="#000000" points="43,-355.5 43,-385.5 339,-385.5 339,-355.5 43,-355.5"/>
<text text-anchor="start" x="50" y="-366.9" font-family="Arial" font-size="14.00" fill="#000000">user_id    </text>
<text text-anchor="start" x="130.1024" y="-366.9" font-family="Arial" font-size="14.00" fill="#666666">[integer]</text>
<polygon fill="none" stroke="#000000" points="43,-325.5 43,-355.5 339,-355.5 339,-325.5 43,-325.5"/>
<text text-anchor="start" x="50" y="-336.9" font-family="Arial" font-size="14.00" fill="#000000">subject    </text>
<text text-anchor="start" x="128.5498" y="-336.9" font-family="Arial" font-size="14.00" fill="#666666">[text]</text>
</g>
<!-- main.auth_subjects&#45;&gt;main.users -->
<g id="edge1" class="edge">
<title>main.auth_subjects:user_id&#45;&gt;main.users:id</title>
<path fill="none" stroke="#000000" d="M33.0613,-368.9143C6.8161,-359.3969 19.8594,-309.3799 43,-283 123.9958,-190.6663 236.0042,-339.3337 317,-247 345.2828,-214.7581 359.8889,-150.5 317,-150.5"/>
<polygon fill="#000000" stroke="#000000" points="33.1249,-368.9244 42.291,-374.9438 38.0624,-369.7122 43,-370.5 43,-370.5 43,-370.5 38.0624,-369.7122 43.709,-366.0562 33.1249,-368.9244 33.1249,-368.9244"/>
</g>
</g>
</svg>
