<?xml version="1.0" encoding="UTF-8" standalone="no"?>
<!DOCTYPE svg PUBLIC "-//W3C//DTD SVG 1.1//EN"
 "http://www.w3.org/Graphics/SVG/1.1/DTD/svg11.dtd">
<!-- Generated by graphviz version 2.40.1 (20161225.0304)
 -->
<!-- Title: public.users Pages: 1 -->
<svg width="398pt" height="562pt"
 viewBox="0.00 0.00 398.00 562.00" xmlns="http://www.w3.org/2000/svg" xmlns:xlink="http://www.w3.org/1999/xlink">
<g id="graph0" class="graph" transform="scale(1 1) rotate(0) translate(4 558)">
<title>public.users</title>
<polygon fill="#ffffff" stroke="transparent" points="-4,4 -4,-558 394,-558 394,4 -4,4"/>
<!-- public.users -->
<g id="node1" class="node">
<title>public.users</title>
<polygon fill="#efefef" stroke="transparent" points="68,-165.5 68,-200.5 321,-200.5 321,-165.5 68,-165.5"/>
<polygon fill="none" stroke="#000000" points="68,-165.5 68,-200.5 321,-200.5 321,-165.5 68,-165.5"/>
<text text-anchor="start" x="82.7091" y="-178.3" font-family="Arial Bold" font-size="18.00" fill="#000000">public.users</text>
<text text-anchor="start" x="178.7229" y="-178.3" font-family="Arial" font-size="14.00" fill="#000000">    </text>
<text text-anchor="start" x="212.9277" y="-178.3" font-family="Arial" font-size="14.00" fill="#666666">[BASE TABLE]</text>
<polygon fill="none" stroke="#000000" points="68,-135.5 68,-165.5 321,-165.5 321,-135.5 68,-135.5"/>
<text text-anchor="start" x="75" y="-146.9" font-family="Arial" font-size="14.00" fill="#000000">id </text>
<text text-anchor="start" x="89.7798" y="-146.9" font-family="Arial" font-size="14.00" fill="#666666">[integer]</text>
<polygon fill="none" stroke="#000000" points="68,-105.5 68,-135.5 321,-135.5 321,-105.5 68,-105.5"/>
<text text-anchor="start" x="75" y="-116.9" font-family="Arial" font-size="14.00" fill="#000000">name </text>
<text text-anchor="start" x="113.899" y="-116.9" font-family="Arial" font-size="14.00" fill="#666666">[text]</text>
<polygon fill="none" stroke="#000000" points="68,-75.5 68,-105.5 321,-105.5 321,-75.5 68,-75.5"/>
<text text-anchor="start" x="75" y="-86.9" font-family="Arial" font-size="14.00" fill="#000000">created_at </text>
<text text-anchor="start" x="145.028" y="-86.9" font-family="Arial" font-size="14.00" fill="#666666">[timestamp with time zone]</text>
<polygon fill="none" stroke="#000000" points="68,-45.5 68,-75.5 321,-75.5 321,-45.5 68,-45.5"/>
<text text-anchor="start" x="74.6915" y="-56.9" font-family="Arial" font-size="14.00" fill="#000000">updated_at </text>
<text text-anchor="start" x="148.6241" y="-56.9" font-family="Arial" font-size="14.00" fill="#666666">[timestamp with time zone]</text>
<polygon fill="none" stroke="#000000" stroke-width="3" points="66,-44.5 66,-202.5 322,-202.5 322,-44.5 66,-44.5"/>
</g>
<!-- public.auth_subjects -->
<g id="node2" class="node">
<title>public.auth_subjects</title>
<polygon fill="#efefef" stroke="transparent" points="43,-475.5 43,-510.5 347,-510.5 347,-475.5 43,-475.5"/>
<polygon fill="none" stroke="#000000" points="43,-475.5 43,-510.5 347,-510.5 347,-475.5 43,-475.5"/>
<text text-anchor="start" x="49.6904" y="-488.3" font-family="Arial Bold" font-size="18.00" fill="#000000">public.auth_subjects</text>
<text text-anchor="start" x="212.7416" y="-488.3" font-family="Arial" font-size="14.00" fill="#000000">    </text>
<text text-anchor="start" x="246.9464" y="-488.3" font-family="Arial" font-size="14.00" fill="#666666">[BASE TABLE]</text>
<polygon fill="none" stroke="#000000" points="43,-445.5 43,-475.5 347,-475.5 347,-445.5 43,-445.5"/>
<text text-anchor="start" x="50" y="-456.9" font-family="Arial" font-size="14.00" fill="#000000">id    </text>
<text text-anchor="start" x="95.094" y="-456.9" font-family="Arial" font-size="14.00" fill="#666666">[integer]</text>
<polygon fill="none" stroke="#000000" points="43,-415.5 43,-445.5 347,-445.5 347,-415.5 43,-415.5"/>
<text text-anchor="start" x="50" y="-426.9" font-family="Arial" font-size="14.00" fill="#000000">user_id    </text>
<text text-anchor="start" x="130.1024" y="-426.9" font-family="Arial" font-size="14.00" fill="#666666">[integer]</text>
<polygon fill="none" stroke="#000000" points="43,-385.5 43,-415.5 347,-415.5 347,-385.5 43,-385.5"/>
<text text-anchor="start" x="50" y="-396.9" font-family="Arial" font-size="14.00" fill="#000000">subject    </text>
<text text-anchor="start" x="128.5498" y="-396.9" font-family="Arial" font-size="14.00" fill="#666666">[text]</text>
<polygon fill="none" stroke="#000000" points="43,-355.5 43,-385.5 347,-385.5 347,-355.5 43,-355.5"/>
<text text-anchor="start" x="50" y="-366.9" font-family="Arial" font-size="14.00" fill="#000000">created_at    </text>
<text text-anchor="start" x="150.3422" y="-366.9" font-family="Arial" font-size="14.00" fill="#666666">[timestamp with time zone]</text>
<polygon fill="none" stroke="#000000" points="43,-325.5 43,-355.5 347,-355.5 347,-325.5 43,-325.5"/>
<text text-anchor="start" x="50" y="-336.9" font-family="Arial" font-size="14.00" fill="#000000">updated_at    </text>
<text text-anchor="start" x="154.2468" y="-336.9" font-family="Arial" font-size="14.00" fill="#666666">[timestamp with time zone]</text>
</g>
<!-- public.auth_subjects&#45;&gt;public.users -->
<g id="edge1" class="edge">
<title>public.auth_subjects:user_id&#45;&gt;public.users:id</title>
<path fill="none" stroke="#000000" d="M33.0219,-429.6425C-20.0559,-419.8996 2.0907,-329.5485 43,-283 125.2453,-189.4175 238.7547,-340.5825 321,-247 349.3128,-214.7844 363.8889,-150.5 321,-150.5"/>
<polygon fill="#000000" stroke="#000000" points="33.0367,-429.6437 42.6147,-434.9835 38.0184,-430.0718 43,-430.5 43,-430.5 43,-430.5 38.0184,-430.0718 43.3853,-426.0165 33.0367,-429.6437 33.0367,-429.6437"/>
</g>
</g>
</svg>
