<?xml version="1.0" encoding="UTF-8" standalone="no"?>
<!DOCTYPE svg PUBLIC "-//W3C//DTD SVG 1.1//EN"
 "http://www.w3.org/Graphics/SVG/1.1/DTD/svg11.dtd">
<!-- Generated by graphviz version 2.40.1 (20161225.0304)
 -->
<!-- Title: public.market_images Pages: 1 -->
<svg width="416pt" height="592pt"
 viewBox="0.00 0.00 416.00 592.00" xmlns="http://www.w3.org/2000/svg" xmlns:xlink="http://www.w3.org/1999/xlink">
<g id="graph0" class="graph" transform="scale(1 1) rotate(0) translate(4 588)">
<title>public.market_images</title>
<polygon fill="#ffffff" stroke="transparent" points="-4,4 -4,-588 412,-588 412,4 -4,4"/>
<!-- public.market_images -->
<g id="node1" class="node">
<title>public.market_images</title>
<polygon fill="#efefef" stroke="transparent" points="46,-502.5 46,-537.5 362,-537.5 362,-502.5 46,-502.5"/>
<polygon fill="none" stroke="#000000" points="46,-502.5 46,-537.5 362,-537.5 362,-502.5 46,-502.5"/>
<text text-anchor="start" x="52.7063" y="-515.3" font-family="Arial Bold" font-size="18.00" fill="#000000">public.market_images</text>
<text text-anchor="start" x="227.7257" y="-515.3" font-family="Arial" font-size="14.00" fill="#000000">    </text>
<text text-anchor="start" x="261.9305" y="-515.3" font-family="Arial" font-size="14.00" fill="#666666">[BASE TABLE]</text>
<polygon fill="none" stroke="#000000" points="46,-472.5 46,-502.5 362,-502.5 362,-472.5 46,-472.5"/>
<text text-anchor="start" x="53" y="-483.9" font-family="Arial" font-size="14.00" fill="#000000">id </text>
<text text-anchor="start" x="67.7798" y="-483.9" font-family="Arial" font-size="14.00" fill="#666666">[uuid]</text>
<polygon fill="none" stroke="#000000" points="46,-442.5 46,-472.5 362,-472.5 362,-442.5 46,-442.5"/>
<text text-anchor="start" x="53" y="-453.9" font-family="Arial" font-size="14.00" fill="#000000">market_id </text>
<text text-anchor="start" x="118.3394" y="-453.9" font-family="Arial" font-size="14.00" fill="#666666">[uuid]</text>
<polygon fill="none" stroke="#000000" points="46,-412.5 46,-442.5 362,-442.5 362,-412.5 46,-412.5"/>
<text text-anchor="start" x="53" y="-423.9" font-family="Arial" font-size="14.00" fill="#000000">image_id </text>
<text text-anchor="start" x="113.6774" y="-423.9" font-family="Arial" font-size="14.00" fill="#666666">[uuid]</text>
<polygon fill="none" stroke="#000000" points="46,-382.5 46,-412.5 362,-412.5 362,-382.5 46,-382.5"/>
<text text-anchor="start" x="53" y="-393.9" font-family="Arial" font-size="14.00" fill="#000000">created_at </text>
<text text-anchor="start" x="123.028" y="-393.9" font-family="Arial" font-size="14.00" fill="#666666">[timestamp with time zone]</text>
<polygon fill="none" stroke="#000000" points="46,-352.5 46,-382.5 362,-382.5 362,-352.5 46,-352.5"/>
<text text-anchor="start" x="53" y="-363.9" font-family="Arial" font-size="14.00" fill="#000000">updated_at </text>
<text text-anchor="start" x="126.9326" y="-363.9" font-family="Arial" font-size="14.00" fill="#666666">[timestamp with time zone]</text>
<polygon fill="none" stroke="#000000" stroke-width="3" points="44.5,-351.5 44.5,-539.5 363.5,-539.5 363.5,-351.5 44.5,-351.5"/>
</g>
<!-- public.markets -->
<g id="node2" class="node">
<title>public.markets</title>
<polygon fill="#efefef" stroke="transparent" points="62,-192.5 62,-227.5 345,-227.5 345,-192.5 62,-192.5"/>
<polygon fill="none" stroke="#000000" points="62,-192.5 62,-227.5 345,-227.5 345,-192.5 62,-192.5"/>
<text text-anchor="start" x="81.7119" y="-205.3" font-family="Arial Bold" font-size="18.00" fill="#000000">public.markets</text>
<text text-anchor="start" x="197.7201" y="-205.3" font-family="Arial" font-size="14.00" fill="#000000">    </text>
<text text-anchor="start" x="231.9249" y="-205.3" font-family="Arial" font-size="14.00" fill="#666666">[BASE TABLE]</text>
<polygon fill="none" stroke="#000000" points="62,-162.5 62,-192.5 345,-192.5 345,-162.5 62,-162.5"/>
<text text-anchor="start" x="69" y="-173.9" font-family="Arial" font-size="14.00" fill="#000000">id    </text>
<text text-anchor="start" x="114.094" y="-173.9" font-family="Arial" font-size="14.00" fill="#666666">[uuid]</text>
<polygon fill="none" stroke="#000000" points="62,-132.5 62,-162.5 345,-162.5 345,-132.5 62,-132.5"/>
<text text-anchor="start" x="69" y="-143.9" font-family="Arial" font-size="14.00" fill="#000000">name    </text>
<text text-anchor="start" x="138.2132" y="-143.9" font-family="Arial" font-size="14.00" fill="#666666">[text]</text>
<polygon fill="none" stroke="#000000" points="62,-102.5 62,-132.5 345,-132.5 345,-102.5 62,-102.5"/>
<text text-anchor="start" x="69" y="-113.9" font-family="Arial" font-size="14.00" fill="#000000">description    </text>
<text text-anchor="start" x="170.8822" y="-113.9" font-family="Arial" font-size="14.00" fill="#666666">[text]</text>
<polygon fill="none" stroke="#000000" points="62,-72.5 62,-102.5 345,-102.5 345,-72.5 62,-72.5"/>
<text text-anchor="start" x="69" y="-83.9" font-family="Arial" font-size="14.00" fill="#000000">created_at    </text>
<text text-anchor="start" x="169.3422" y="-83.9" font-family="Arial" font-size="14.00" fill="#666666">[timestamp with time zone]</text>
<polygon fill="none" stroke="#000000" points="62,-42.5 62,-72.5 345,-72.5 345,-42.5 62,-42.5"/>
<text text-anchor="start" x="68.5344" y="-53.9" font-family="Arial" font-size="14.00" fill="#000000">updated_at    </text>
<text text-anchor="start" x="172.7812" y="-53.9" font-family="Arial" font-size="14.00" fill="#666666">[timestamp with time zone]</text>
</g>
<!-- public.market_images&#45;&gt;public.markets -->
<g id="edge1" class="edge">
<title>public.market_images:market_id&#45;&gt;public.markets:id</title>
<path fill="none" stroke="#000000" d="M35.8171,-456.6234C-18.3616,-446.6635 4.0464,-354.3079 46,-307 134.8084,-206.8575 256.1916,-371.1425 345,-271 372.5721,-239.9091 386.5556,-177.5 345,-177.5"/>
<polygon fill="#000000" stroke="#000000" points="36.0369,-456.6422 45.614,-461.9834 41.0184,-457.0711 46,-457.5 46,-457.5 46,-457.5 41.0184,-457.0711 46.386,-453.0166 36.0369,-456.6422 36.0369,-456.6422"/>
</g>
</g>
</svg>
