<?xml version="1.0" encoding="UTF-8" standalone="no"?>
<!DOCTYPE svg PUBLIC "-//W3C//DTD SVG 1.1//EN"
 "http://www.w3.org/Graphics/SVG/1.1/DTD/svg11.dtd">
<!-- Generated by graphviz version 2.40.1 (20161225.0304)
 -->
<!-- Title: public.markets Pages: 1 -->
<svg width="379pt" height="622pt"
 viewBox="0.00 0.00 379.49 622.00" xmlns="http://www.w3.org/2000/svg" xmlns:xlink="http://www.w3.org/1999/xlink">
<g id="graph0" class="graph" transform="scale(1 1) rotate(0) translate(4 618)">
<title>public.markets</title>
<polygon fill="#ffffff" stroke="transparent" points="-4,4 -4,-618 375.492,-618 375.492,4 -4,4"/>
<!-- public.markets -->
<g id="node1" class="node">
<title>public.markets</title>
<polygon fill="#efefef" stroke="transparent" points="58.992,-195.5 58.992,-230.5 315.992,-230.5 315.992,-195.5 58.992,-195.5"/>
<polygon fill="none" stroke="#000000" points="58.992,-195.5 58.992,-230.5 315.992,-230.5 315.992,-195.5 58.992,-195.5"/>
<text text-anchor="start" x="65.7039" y="-208.3" font-family="Arial Bold" font-size="18.00" fill="#000000">public.markets</text>
<text text-anchor="start" x="181.7121" y="-208.3" font-family="Arial" font-size="14.00" fill="#000000">    </text>
<text text-anchor="start" x="215.9169" y="-208.3" font-family="Arial" font-size="14.00" fill="#666666">[BASE TABLE]</text>
<polygon fill="none" stroke="#000000" points="58.992,-165.5 58.992,-195.5 315.992,-195.5 315.992,-165.5 58.992,-165.5"/>
<text text-anchor="start" x="65.992" y="-176.9" font-family="Arial" font-size="14.00" fill="#000000">id </text>
<text text-anchor="start" x="80.7718" y="-176.9" font-family="Arial" font-size="14.00" fill="#666666">[uuid]</text>
<polygon fill="none" stroke="#000000" points="58.992,-135.5 58.992,-165.5 315.992,-165.5 315.992,-135.5 58.992,-135.5"/>
<text text-anchor="start" x="65.992" y="-146.9" font-family="Arial" font-size="14.00" fill="#000000">name </text>
<text text-anchor="start" x="104.891" y="-146.9" font-family="Arial" font-size="14.00" fill="#666666">[text]</text>
<polygon fill="none" stroke="#000000" points="58.992,-105.5 58.992,-135.5 315.992,-135.5 315.992,-105.5 58.992,-105.5"/>
<text text-anchor="start" x="65.992" y="-116.9" font-family="Arial" font-size="14.00" fill="#000000">description </text>
<text text-anchor="start" x="137.56" y="-116.9" font-family="Arial" font-size="14.00" fill="#666666">[text]</text>
<polygon fill="none" stroke="#000000" points="58.992,-75.5 58.992,-105.5 315.992,-105.5 315.992,-75.5 58.992,-75.5"/>
<text text-anchor="start" x="65.992" y="-86.9" font-family="Arial" font-size="14.00" fill="#000000">created_at </text>
<text text-anchor="start" x="136.02" y="-86.9" font-family="Arial" font-size="14.00" fill="#666666">[timestamp with time zone]</text>
<polygon fill="none" stroke="#000000" points="58.992,-45.5 58.992,-75.5 315.992,-75.5 315.992,-45.5 58.992,-45.5"/>
<text text-anchor="start" x="65.992" y="-56.9" font-family="Arial" font-size="14.00" fill="#000000">updated_at </text>
<text text-anchor="start" x="139.9246" y="-56.9" font-family="Arial" font-size="14.00" fill="#666666">[timestamp with time zone]</text>
<polygon fill="none" stroke="#000000" stroke-width="3" points="56.992,-44.5 56.992,-232.5 316.992,-232.5 316.992,-44.5 56.992,-44.5"/>
</g>
<!-- public.items -->
<g id="node2" class="node">
<title>public.items</title>
<polygon fill="#efefef" stroke="transparent" points="45.992,-535.5 45.992,-570.5 328.992,-570.5 328.992,-535.5 45.992,-535.5"/>
<polygon fill="none" stroke="#000000" points="45.992,-535.5 45.992,-570.5 328.992,-570.5 328.992,-535.5 45.992,-535.5"/>
<text text-anchor="start" x="76.206" y="-548.3" font-family="Arial Bold" font-size="18.00" fill="#000000">public.items</text>
<text text-anchor="start" x="171.21" y="-548.3" font-family="Arial" font-size="14.00" fill="#000000">    </text>
<text text-anchor="start" x="205.4148" y="-548.3" font-family="Arial" font-size="14.00" fill="#666666">[BASE TABLE]</text>
<polygon fill="none" stroke="#000000" points="45.992,-505.5 45.992,-535.5 328.992,-535.5 328.992,-505.5 45.992,-505.5"/>
<text text-anchor="start" x="52.992" y="-516.9" font-family="Arial" font-size="14.00" fill="#000000">id    </text>
<text text-anchor="start" x="98.086" y="-516.9" font-family="Arial" font-size="14.00" fill="#666666">[uuid]</text>
<polygon fill="none" stroke="#000000" points="45.992,-475.5 45.992,-505.5 328.992,-505.5 328.992,-475.5 45.992,-475.5"/>
<text text-anchor="start" x="52.992" y="-486.9" font-family="Arial" font-size="14.00" fill="#000000">market_id    </text>
<text text-anchor="start" x="148.6456" y="-486.9" font-family="Arial" font-size="14.00" fill="#666666">[uuid]</text>
<polygon fill="none" stroke="#000000" points="45.992,-445.5 45.992,-475.5 328.992,-475.5 328.992,-445.5 45.992,-445.5"/>
<text text-anchor="start" x="52.992" y="-456.9" font-family="Arial" font-size="14.00" fill="#000000">name    </text>
<text text-anchor="start" x="122.2052" y="-456.9" font-family="Arial" font-size="14.00" fill="#666666">[text]</text>
<polygon fill="none" stroke="#000000" points="45.992,-415.5 45.992,-445.5 328.992,-445.5 328.992,-415.5 45.992,-415.5"/>
<text text-anchor="start" x="52.992" y="-426.9" font-family="Arial" font-size="14.00" fill="#000000">price    </text>
<text text-anchor="start" x="117.5292" y="-426.9" font-family="Arial" font-size="14.00" fill="#666666">[numeric]</text>
<polygon fill="none" stroke="#000000" points="45.992,-385.5 45.992,-415.5 328.992,-415.5 328.992,-385.5 45.992,-385.5"/>
<text text-anchor="start" x="52.992" y="-396.9" font-family="Arial" font-size="14.00" fill="#000000">created_at    </text>
<text text-anchor="start" x="153.3342" y="-396.9" font-family="Arial" font-size="14.00" fill="#666666">[timestamp with time zone]</text>
<polygon fill="none" stroke="#000000" points="45.992,-355.5 45.992,-385.5 328.992,-385.5 328.992,-355.5 45.992,-355.5"/>
<text text-anchor="start" x="52.5264" y="-366.9" font-family="Arial" font-size="14.00" fill="#000000">updated_at    </text>
<text text-anchor="start" x="156.7732" y="-366.9" font-family="Arial" font-size="14.00" fill="#666666">[timestamp with time zone]</text>
</g>
<!-- public.items&#45;&gt;public.markets -->
<g id="edge1" class="edge">
<title>public.items:market_id&#45;&gt;public.markets:id</title>
<path fill="none" stroke="#000000" d="M36.1186,-488.183C-21.4928,-459.815 -6.4561,-180.5 58.992,-180.5"/>
<polygon fill="#000000" stroke="#000000" points="36.2565,-488.2153 44.9639,-494.881 41.1243,-489.3576 45.992,-490.5 45.992,-490.5 45.992,-490.5 41.1243,-489.3576 47.0202,-486.119 36.2565,-488.2153 36.2565,-488.2153"/>
</g>
</g>
</svg>
