<?xml version="1.0" encoding="UTF-8" standalone="no"?>
<!DOCTYPE svg PUBLIC "-//W3C//DTD SVG 1.1//EN"
 "http://www.w3.org/Graphics/SVG/1.1/DTD/svg11.dtd">
<!-- Generated by graphviz version 2.40.1 (20161225.0304)
 -->
<!-- Title: public.items Pages: 1 -->
<svg width="379pt" height="622pt"
 viewBox="0.00 0.00 378.64 622.00" xmlns="http://www.w3.org/2000/svg" xmlns:xlink="http://www.w3.org/1999/xlink">
<g id="graph0" class="graph" transform="scale(1 1) rotate(0) translate(4 618)">
<title>public.items</title>
<polygon fill="#ffffff" stroke="transparent" points="-4,4 -4,-618 374.6366,-618 374.6366,4 -4,4"/>
<!-- public.items -->
<g id="node1" class="node">
<title>public.items</title>
<polygon fill="#efefef" stroke="transparent" points="60.1366,-532.5 60.1366,-567.5 313.1366,-567.5 313.1366,-532.5 60.1366,-532.5"/>
<polygon fill="none" stroke="#000000" points="60.1366,-532.5 60.1366,-567.5 313.1366,-567.5 313.1366,-532.5 60.1366,-532.5"/>
<text text-anchor="start" x="75.3506" y="-545.3" font-family="Arial Bold" font-size="18.00" fill="#000000">public.items</text>
<text text-anchor="start" x="170.3546" y="-545.3" font-family="Arial" font-size="14.00" fill="#000000">    </text>
<text text-anchor="start" x="204.5594" y="-545.3" font-family="Arial" font-size="14.00" fill="#666666">[BASE TABLE]</text>
<polygon fill="none" stroke="#000000" points="60.1366,-502.5 60.1366,-532.5 313.1366,-532.5 313.1366,-502.5 60.1366,-502.5"/>
<text text-anchor="start" x="67.1366" y="-513.9" font-family="Arial" font-size="14.00" fill="#000000">id </text>
<text text-anchor="start" x="81.9164" y="-513.9" font-family="Arial" font-size="14.00" fill="#666666">[uuid]</text>
<polygon fill="none" stroke="#000000" points="60.1366,-472.5 60.1366,-502.5 313.1366,-502.5 313.1366,-472.5 60.1366,-472.5"/>
<text text-anchor="start" x="67.1366" y="-483.9" font-family="Arial" font-size="14.00" fill="#000000">market_id </text>
<text text-anchor="start" x="132.476" y="-483.9" font-family="Arial" font-size="14.00" fill="#666666">[uuid]</text>
<polygon fill="none" stroke="#000000" points="60.1366,-442.5 60.1366,-472.5 313.1366,-472.5 313.1366,-442.5 60.1366,-442.5"/>
<text text-anchor="start" x="67.1366" y="-453.9" font-family="Arial" font-size="14.00" fill="#000000">name </text>
<text text-anchor="start" x="106.0356" y="-453.9" font-family="Arial" font-size="14.00" fill="#666666">[text]</text>
<polygon fill="none" stroke="#000000" points="60.1366,-412.5 60.1366,-442.5 313.1366,-442.5 313.1366,-412.5 60.1366,-412.5"/>
<text text-anchor="start" x="67.1366" y="-423.9" font-family="Arial" font-size="14.00" fill="#000000">price </text>
<text text-anchor="start" x="101.3596" y="-423.9" font-family="Arial" font-size="14.00" fill="#666666">[numeric]</text>
<polygon fill="none" stroke="#000000" points="60.1366,-382.5 60.1366,-412.5 313.1366,-412.5 313.1366,-382.5 60.1366,-382.5"/>
<text text-anchor="start" x="67.1366" y="-393.9" font-family="Arial" font-size="14.00" fill="#000000">created_at </text>
<text text-anchor="start" x="137.1646" y="-393.9" font-family="Arial" font-size="14.00" fill="#666666">[timestamp with time zone]</text>
<polygon fill="none" stroke="#000000" points="60.1366,-352.5 60.1366,-382.5 313.1366,-382.5 313.1366,-352.5 60.1366,-352.5"/>
<text text-anchor="start" x="66.8281" y="-363.9" font-family="Arial" font-size="14.00" fill="#000000">updated_at </text>
<text text-anchor="start" x="140.7607" y="-363.9" font-family="Arial" font-size="14.00" fill="#666666">[timestamp with time zone]</text>
<polygon fill="none" stroke="#000000" stroke-width="3" points="58.1366,-351.5 58.1366,-569.5 314.1366,-569.5 314.1366,-351.5 58.1366,-351.5"/>
</g>
<!-- public.markets -->
<g id="node2" class="node">
<title>public.markets</title>
<polygon fill="#efefef" stroke="transparent" points="45.1366,-192.5 45.1366,-227.5 328.1366,-227.5 328.1366,-192.5 45.1366,-192.5"/>
<polygon fill="none" stroke="#000000" points="45.1366,-192.5 45.1366,-227.5 328.1366,-227.5 328.1366,-192.5 45.1366,-192.5"/>
<text text-anchor="start" x="64.8485" y="-205.3" font-family="Arial Bold" font-size="18.00" fill="#000000">public.markets</text>
<text text-anchor="start" x="180.8567" y="-205.3" font-family="Arial" font-size="14.00" fill="#000000">    </text>
<text text-anchor="start" x="215.0615" y="-205.3" font-family="Arial" font-size="14.00" fill="#666666">[BASE TABLE]</text>
<polygon fill="none" stroke="#000000" points="45.1366,-162.5 45.1366,-192.5 328.1366,-192.5 328.1366,-162.5 45.1366,-162.5"/>
<text text-anchor="start" x="52.1366" y="-173.9" font-family="Arial" font-size="14.00" fill="#000000">id    </text>
<text text-anchor="start" x="97.2306" y="-173.9" font-family="Arial" font-size="14.00" fill="#666666">[uuid]</text>
<polygon fill="none" stroke="#000000" points="45.1366,-132.5 45.1366,-162.5 328.1366,-162.5 328.1366,-132.5 45.1366,-132.5"/>
<text text-anchor="start" x="52.1366" y="-143.9" font-family="Arial" font-size="14.00" fill="#000000">name    </text>
<text text-anchor="start" x="121.3498" y="-143.9" font-family="Arial" font-size="14.00" fill="#666666">[text]</text>
<polygon fill="none" stroke="#000000" points="45.1366,-102.5 45.1366,-132.5 328.1366,-132.5 328.1366,-102.5 45.1366,-102.5"/>
<text text-anchor="start" x="52.1366" y="-113.9" font-family="Arial" font-size="14.00" fill="#000000">description    </text>
<text text-anchor="start" x="154.0188" y="-113.9" font-family="Arial" font-size="14.00" fill="#666666">[text]</text>
<polygon fill="none" stroke="#000000" points="45.1366,-72.5 45.1366,-102.5 328.1366,-102.5 328.1366,-72.5 45.1366,-72.5"/>
<text text-anchor="start" x="52.1366" y="-83.9" font-family="Arial" font-size="14.00" fill="#000000">created_at    </text>
<text text-anchor="start" x="152.4788" y="-83.9" font-family="Arial" font-size="14.00" fill="#666666">[timestamp with time zone]</text>
<polygon fill="none" stroke="#000000" points="45.1366,-42.5 45.1366,-72.5 328.1366,-72.5 328.1366,-42.5 45.1366,-42.5"/>
<text text-anchor="start" x="51.671" y="-53.9" font-family="Arial" font-size="14.00" fill="#000000">updated_at    </text>
<text text-anchor="start" x="155.9178" y="-53.9" font-family="Arial" font-size="14.00" fill="#666666">[timestamp with time zone]</text>
</g>
<!-- public.items&#45;&gt;public.markets -->
<g id="edge1" class="edge">
<title>public.items:market_id&#45;&gt;public.markets:id</title>
<path fill="none" stroke="#000000" d="M50.0509,-485.183C-10.1398,-456.815 -20.3306,-177.5 45.1366,-177.5"/>
<polygon fill="#000000" stroke="#000000" points="50.3904,-485.2609 59.129,-491.8858 55.2635,-486.3804 60.1366,-487.5 60.1366,-487.5 60.1366,-487.5 55.2635,-486.3804 61.1442,-483.1142 50.3904,-485.2609 50.3904,-485.2609"/>
</g>
</g>
</svg>
