<?xml version="1.0" encoding="UTF-8" standalone="no"?>
<!DOCTYPE svg PUBLIC "-//W3C//DTD SVG 1.1//EN"
 "http://www.w3.org/Graphics/SVG/1.1/DTD/svg11.dtd">
<!-- Generated by graphviz version 2.40.1 (20161225.0304)
 -->
<!-- Title: public.auth_subjects Pages: 1 -->
<svg width="404pt" height="562pt"
 viewBox="0.00 0.00 404.00 562.00" xmlns="http://www.w3.org/2000/svg" xmlns:xlink="http://www.w3.org/1999/xlink">
<g id="graph0" class="graph" transform="scale(1 1) rotate(0) translate(4 558)">
<title>public.auth_subjects</title>
<polygon fill="#ffffff" stroke="transparent" points="-4,4 -4,-558 400,-558 400,4 -4,4"/>
<!-- public.auth_subjects -->
<g id="node1" class="node">
<title>public.auth_subjects</title>
<polygon fill="#efefef" stroke="transparent" points="46,-472.5 46,-507.5 350,-507.5 350,-472.5 46,-472.5"/>
<polygon fill="none" stroke="#000000" points="46,-472.5 46,-507.5 350,-507.5 350,-472.5 46,-472.5"/>
<text text-anchor="start" x="52.6904" y="-485.3" font-family="Arial Bold" font-size="18.00" fill="#000000">public.auth_subjects</text>
<text text-anchor="start" x="215.7416" y="-485.3" font-family="Arial" font-size="14.00" fill="#000000">    </text>
<text text-anchor="start" x="249.9464" y="-485.3" font-family="Arial" font-size="14.00" fill="#666666">[BASE TABLE]</text>
<polygon fill="none" stroke="#000000" points="46,-442.5 46,-472.5 350,-472.5 350,-442.5 46,-442.5"/>
<text text-anchor="start" x="53" y="-453.9" font-family="Arial" font-size="14.00" fill="#000000">id </text>
<text text-anchor="start" x="67.7798" y="-453.9" font-family="Arial" font-size="14.00" fill="#666666">[uuid]</text>
<polygon fill="none" stroke="#000000" points="46,-412.5 46,-442.5 350,-442.5 350,-412.5 46,-412.5"/>
<text text-anchor="start" x="53" y="-423.9" font-family="Arial" font-size="14.00" fill="#000000">user_id </text>
<text text-anchor="start" x="102.7882" y="-423.9" font-family="Arial" font-size="14.00" fill="#666666">[uuid]</text>
<polygon fill="none" stroke="#000000" points="46,-382.5 46,-412.5 350,-412.5 350,-382.5 46,-382.5"/>
<text text-anchor="start" x="53" y="-393.9" font-family="Arial" font-size="14.00" fill="#000000">subject </text>
<text text-anchor="start" x="101.2356" y="-393.9" font-family="Arial" font-size="14.00" fill="#666666">[text]</text>
<polygon fill="none" stroke="#000000" points="46,-352.5 46,-382.5 350,-382.5 350,-352.5 46,-352.5"/>
<text text-anchor="start" x="53" y="-363.9" font-family="Arial" font-size="14.00" fill="#000000">created_at </text>
<text text-anchor="start" x="123.028" y="-363.9" font-family="Arial" font-size="14.00" fill="#666666">[timestamp with time zone]</text>
<polygon fill="none" stroke="#000000" points="46,-322.5 46,-352.5 350,-352.5 350,-322.5 46,-322.5"/>
<text text-anchor="start" x="53" y="-333.9" font-family="Arial" font-size="14.00" fill="#000000">updated_at </text>
<text text-anchor="start" x="126.9326" y="-333.9" font-family="Arial" font-size="14.00" fill="#666666">[timestamp with time zone]</text>
<polygon fill="none" stroke="#000000" stroke-width="3" points="44.5,-321.5 44.5,-509.5 351.5,-509.5 351.5,-321.5 44.5,-321.5"/>
</g>
<!-- public.users -->
<g id="node2" class="node">
<title>public.users</title>
<polygon fill="#efefef" stroke="transparent" points="56,-162.5 56,-197.5 339,-197.5 339,-162.5 56,-162.5"/>
<polygon fill="none" stroke="#000000" points="56,-162.5 56,-197.5 339,-197.5 339,-162.5 56,-162.5"/>
<text text-anchor="start" x="85.7091" y="-175.3" font-family="Arial Bold" font-size="18.00" fill="#000000">public.users</text>
<text text-anchor="start" x="181.7229" y="-175.3" font-family="Arial" font-size="14.00" fill="#000000">    </text>
<text text-anchor="start" x="215.9277" y="-175.3" font-family="Arial" font-size="14.00" fill="#666666">[BASE TABLE]</text>
<polygon fill="none" stroke="#000000" points="56,-132.5 56,-162.5 339,-162.5 339,-132.5 56,-132.5"/>
<text text-anchor="start" x="63" y="-143.9" font-family="Arial" font-size="14.00" fill="#000000">id    </text>
<text text-anchor="start" x="108.094" y="-143.9" font-family="Arial" font-size="14.00" fill="#666666">[uuid]</text>
<polygon fill="none" stroke="#000000" points="56,-102.5 56,-132.5 339,-132.5 339,-102.5 56,-102.5"/>
<text text-anchor="start" x="63" y="-113.9" font-family="Arial" font-size="14.00" fill="#000000">name    </text>
<text text-anchor="start" x="132.2132" y="-113.9" font-family="Arial" font-size="14.00" fill="#666666">[text]</text>
<polygon fill="none" stroke="#000000" points="56,-72.5 56,-102.5 339,-102.5 339,-72.5 56,-72.5"/>
<text text-anchor="start" x="63" y="-83.9" font-family="Arial" font-size="14.00" fill="#000000">created_at    </text>
<text text-anchor="start" x="163.3422" y="-83.9" font-family="Arial" font-size="14.00" fill="#666666">[timestamp with time zone]</text>
<polygon fill="none" stroke="#000000" points="56,-42.5 56,-72.5 339,-72.5 339,-42.5 56,-42.5"/>
<text text-anchor="start" x="62.5344" y="-53.9" font-family="Arial" font-size="14.00" fill="#000000">updated_at    </text>
<text text-anchor="start" x="166.7812" y="-53.9" font-family="Arial" font-size="14.00" fill="#666666">[timestamp with time zone]</text>
</g>
<!-- public.auth_subjects&#45;&gt;public.users -->
<g id="edge1" class="edge">
<title>public.auth_subjects:user_id&#45;&gt;public.users:id</title>
<path fill="none" stroke="#000000" d="M35.8176,-426.6238C-18.3554,-416.669 4.1039,-324.3588 46,-277 132.9327,-178.7324 252.0673,-339.2676 339,-241 366.5343,-209.8756 380.5556,-147.5 339,-147.5"/>
<polygon fill="#000000" stroke="#000000" points="36.0368,-426.6426 45.6142,-431.9834 41.0184,-427.0713 46,-427.5 46,-427.5 46,-427.5 41.0184,-427.0713 46.3858,-423.0166 36.0368,-426.6426 36.0368,-426.6426"/>
</g>
</g>
</svg>
