<?xml version="1.0" encoding="UTF-8" standalone="no"?>
<!DOCTYPE svg PUBLIC "-//W3C//DTD SVG 1.1//EN"
 "http://www.w3.org/Graphics/SVG/1.1/DTD/svg11.dtd">
<!-- Generated by graphviz version 2.40.1 (20161225.0304)
 -->
<!-- Title: public.markets Pages: 1 -->
<svg width="798pt" height="622pt"
 viewBox="0.00 0.00 797.50 622.00" xmlns="http://www.w3.org/2000/svg" xmlns:xlink="http://www.w3.org/1999/xlink">
<g id="graph0" class="graph" transform="scale(1 1) rotate(0) translate(4 618)">
<title>public.markets</title>
<polygon fill="#ffffff" stroke="transparent" points="-4,4 -4,-618 793.5,-618 793.5,4 -4,4"/>
<!-- public.markets -->
<g id="node1" class="node">
<title>public.markets</title>
<polygon fill="#efefef" stroke="transparent" points="257.5,-195.5 257.5,-230.5 514.5,-230.5 514.5,-195.5 257.5,-195.5"/>
<polygon fill="none" stroke="#000000" points="257.5,-195.5 257.5,-230.5 514.5,-230.5 514.5,-195.5 257.5,-195.5"/>
<text text-anchor="start" x="264.2119" y="-208.3" font-family="Arial Bold" font-size="18.00" fill="#000000">public.markets</text>
<text text-anchor="start" x="380.2201" y="-208.3" font-family="Arial" font-size="14.00" fill="#000000">    </text>
<text text-anchor="start" x="414.4249" y="-208.3" font-family="Arial" font-size="14.00" fill="#666666">[BASE TABLE]</text>
<polygon fill="none" stroke="#000000" points="257.5,-165.5 257.5,-195.5 514.5,-195.5 514.5,-165.5 257.5,-165.5"/>
<text text-anchor="start" x="264.5" y="-176.9" font-family="Arial" font-size="14.00" fill="#000000">id </text>
<text text-anchor="start" x="279.2798" y="-176.9" font-family="Arial" font-size="14.00" fill="#666666">[uuid]</text>
<polygon fill="none" stroke="#000000" points="257.5,-135.5 257.5,-165.5 514.5,-165.5 514.5,-135.5 257.5,-135.5"/>
<text text-anchor="start" x="264.5" y="-146.9" font-family="Arial" font-size="14.00" fill="#000000">name </text>
<text text-anchor="start" x="303.399" y="-146.9" font-family="Arial" font-size="14.00" fill="#666666">[text]</text>
<polygon fill="none" stroke="#000000" points="257.5,-105.5 257.5,-135.5 514.5,-135.5 514.5,-105.5 257.5,-105.5"/>
<text text-anchor="start" x="264.5" y="-116.9" font-family="Arial" font-size="14.00" fill="#000000">description </text>
<text text-anchor="start" x="336.068" y="-116.9" font-family="Arial" font-size="14.00" fill="#666666">[text]</text>
<polygon fill="none" stroke="#000000" points="257.5,-75.5 257.5,-105.5 514.5,-105.5 514.5,-75.5 257.5,-75.5"/>
<text text-anchor="start" x="264.5" y="-86.9" font-family="Arial" font-size="14.00" fill="#000000">created_at </text>
<text text-anchor="start" x="334.528" y="-86.9" font-family="Arial" font-size="14.00" fill="#666666">[timestamp with time zone]</text>
<polygon fill="none" stroke="#000000" points="257.5,-45.5 257.5,-75.5 514.5,-75.5 514.5,-45.5 257.5,-45.5"/>
<text text-anchor="start" x="264.5" y="-56.9" font-family="Arial" font-size="14.00" fill="#000000">updated_at </text>
<text text-anchor="start" x="338.4326" y="-56.9" font-family="Arial" font-size="14.00" fill="#666666">[timestamp with time zone]</text>
<polygon fill="none" stroke="#000000" stroke-width="3" points="255.5,-44.5 255.5,-232.5 515.5,-232.5 515.5,-44.5 255.5,-44.5"/>
</g>
<!-- public.items -->
<g id="node2" class="node">
<title>public.items</title>
<polygon fill="#efefef" stroke="transparent" points="43.5,-535.5 43.5,-570.5 326.5,-570.5 326.5,-535.5 43.5,-535.5"/>
<polygon fill="none" stroke="#000000" points="43.5,-535.5 43.5,-570.5 326.5,-570.5 326.5,-535.5 43.5,-535.5"/>
<text text-anchor="start" x="73.714" y="-548.3" font-family="Arial Bold" font-size="18.00" fill="#000000">public.items</text>
<text text-anchor="start" x="168.718" y="-548.3" font-family="Arial" font-size="14.00" fill="#000000">    </text>
<text text-anchor="start" x="202.9228" y="-548.3" font-family="Arial" font-size="14.00" fill="#666666">[BASE TABLE]</text>
<polygon fill="none" stroke="#000000" points="43.5,-505.5 43.5,-535.5 326.5,-535.5 326.5,-505.5 43.5,-505.5"/>
<text text-anchor="start" x="50.5" y="-516.9" font-family="Arial" font-size="14.00" fill="#000000">id    </text>
<text text-anchor="start" x="95.594" y="-516.9" font-family="Arial" font-size="14.00" fill="#666666">[uuid]</text>
<polygon fill="none" stroke="#000000" points="43.5,-475.5 43.5,-505.5 326.5,-505.5 326.5,-475.5 43.5,-475.5"/>
<text text-anchor="start" x="50.5" y="-486.9" font-family="Arial" font-size="14.00" fill="#000000">market_id    </text>
<text text-anchor="start" x="146.1536" y="-486.9" font-family="Arial" font-size="14.00" fill="#666666">[uuid]</text>
<polygon fill="none" stroke="#000000" points="43.5,-445.5 43.5,-475.5 326.5,-475.5 326.5,-445.5 43.5,-445.5"/>
<text text-anchor="start" x="50.5" y="-456.9" font-family="Arial" font-size="14.00" fill="#000000">name    </text>
<text text-anchor="start" x="119.7132" y="-456.9" font-family="Arial" font-size="14.00" fill="#666666">[text]</text>
<polygon fill="none" stroke="#000000" points="43.5,-415.5 43.5,-445.5 326.5,-445.5 326.5,-415.5 43.5,-415.5"/>
<text text-anchor="start" x="50.5" y="-426.9" font-family="Arial" font-size="14.00" fill="#000000">price    </text>
<text text-anchor="start" x="115.0372" y="-426.9" font-family="Arial" font-size="14.00" fill="#666666">[numeric]</text>
<polygon fill="none" stroke="#000000" points="43.5,-385.5 43.5,-415.5 326.5,-415.5 326.5,-385.5 43.5,-385.5"/>
<text text-anchor="start" x="50.5" y="-396.9" font-family="Arial" font-size="14.00" fill="#000000">created_at    </text>
<text text-anchor="start" x="150.8422" y="-396.9" font-family="Arial" font-size="14.00" fill="#666666">[timestamp with time zone]</text>
<polygon fill="none" stroke="#000000" points="43.5,-355.5 43.5,-385.5 326.5,-385.5 326.5,-355.5 43.5,-355.5"/>
<text text-anchor="start" x="50.0344" y="-366.9" font-family="Arial" font-size="14.00" fill="#000000">updated_at    </text>
<text text-anchor="start" x="154.2812" y="-366.9" font-family="Arial" font-size="14.00" fill="#666666">[timestamp with time zone]</text>
</g>
<!-- public.items&#45;&gt;public.markets -->
<g id="edge1" class="edge">
<title>public.items:market_id&#45;&gt;public.markets:id</title>
<path fill="none" stroke="#000000" d="M336.835,-489.7904C401.8205,-480.2775 365.4774,-377.2996 326.5,-313 308.5694,-283.4206 275.4306,-306.5794 257.5,-277 235.2673,-240.3235 214.6111,-180.5 257.5,-180.5"/>
<polygon fill="#000000" stroke="#000000" points="336.4765,-489.8149 326.1917,-486.0106 331.4883,-490.1574 326.5,-490.5 326.5,-490.5 326.5,-490.5 331.4883,-490.1574 326.8083,-494.9894 336.4765,-489.8149 336.4765,-489.8149"/>
</g>
<!-- public.market_images -->
<g id="node3" class="node">
<title>public.market_images</title>
<polygon fill="#efefef" stroke="transparent" points="430.5,-520.5 430.5,-555.5 746.5,-555.5 746.5,-520.5 430.5,-520.5"/>
<polygon fill="none" stroke="#000000" points="430.5,-520.5 430.5,-555.5 746.5,-555.5 746.5,-520.5 430.5,-520.5"/>
<text text-anchor="start" x="437.2063" y="-533.3" font-family="Arial Bold" font-size="18.00" fill="#000000">public.market_images</text>
<text text-anchor="start" x="612.2257" y="-533.3" font-family="Arial" font-size="14.00" fill="#000000">    </text>
<text text-anchor="start" x="646.4305" y="-533.3" font-family="Arial" font-size="14.00" fill="#666666">[BASE TABLE]</text>
<polygon fill="none" stroke="#000000" points="430.5,-490.5 430.5,-520.5 746.5,-520.5 746.5,-490.5 430.5,-490.5"/>
<text text-anchor="start" x="437.5" y="-501.9" font-family="Arial" font-size="14.00" fill="#000000">id    </text>
<text text-anchor="start" x="482.594" y="-501.9" font-family="Arial" font-size="14.00" fill="#666666">[uuid]</text>
<polygon fill="none" stroke="#000000" points="430.5,-460.5 430.5,-490.5 746.5,-490.5 746.5,-460.5 430.5,-460.5"/>
<text text-anchor="start" x="437.5" y="-471.9" font-family="Arial" font-size="14.00" fill="#000000">market_id    </text>
<text text-anchor="start" x="533.1536" y="-471.9" font-family="Arial" font-size="14.00" fill="#666666">[uuid]</text>
<polygon fill="none" stroke="#000000" points="430.5,-430.5 430.5,-460.5 746.5,-460.5 746.5,-430.5 430.5,-430.5"/>
<text text-anchor="start" x="437.5" y="-441.9" font-family="Arial" font-size="14.00" fill="#000000">url    </text>
<text text-anchor="start" x="487.2546" y="-441.9" font-family="Arial" font-size="14.00" fill="#666666">[text]</text>
<polygon fill="none" stroke="#000000" points="430.5,-400.5 430.5,-430.5 746.5,-430.5 746.5,-400.5 430.5,-400.5"/>
<text text-anchor="start" x="437.5" y="-411.9" font-family="Arial" font-size="14.00" fill="#000000">created_at    </text>
<text text-anchor="start" x="537.8422" y="-411.9" font-family="Arial" font-size="14.00" fill="#666666">[timestamp with time zone]</text>
<polygon fill="none" stroke="#000000" points="430.5,-370.5 430.5,-400.5 746.5,-400.5 746.5,-370.5 430.5,-370.5"/>
<text text-anchor="start" x="437.5" y="-381.9" font-family="Arial" font-size="14.00" fill="#000000">updated_at    </text>
<text text-anchor="start" x="541.7468" y="-381.9" font-family="Arial" font-size="14.00" fill="#666666">[timestamp with time zone]</text>
</g>
<!-- public.market_images&#45;&gt;public.markets -->
<g id="edge2" class="edge">
<title>public.market_images:market_id&#45;&gt;public.markets:id</title>
<path fill="none" stroke="#000000" d="M420.2949,-474.6527C368.7247,-465.3695 400.1713,-381.8949 430.5,-328 451.9193,-289.9373 493.0807,-315.0627 514.5,-277 535.5335,-239.6229 557.3889,-180.5 514.5,-180.5"/>
<polygon fill="#000000" stroke="#000000" points="420.5343,-474.6725 430.1276,-479.9846 425.5171,-475.0862 430.5,-475.5 430.5,-475.5 430.5,-475.5 425.5171,-475.0862 430.8724,-471.0154 420.5343,-474.6725 420.5343,-474.6725"/>
</g>
</g>
</svg>
