<?xml version="1.0" encoding="UTF-8" standalone="no"?>
<!DOCTYPE svg PUBLIC "-//W3C//DTD SVG 1.1//EN"
 "http://www.w3.org/Graphics/SVG/1.1/DTD/svg11.dtd">
<!-- Generated by graphviz version 12.1.2 (20240928.0832)
 -->
<!-- Title: public.items Pages: 1 -->
<svg width="362pt" height="633pt"
 viewBox="0.00 0.00 361.67 632.80" xmlns="http://www.w3.org/2000/svg" xmlns:xlink="http://www.w3.org/1999/xlink">
<g id="graph0" class="graph" transform="scale(1 1) rotate(0) translate(4 628.8)">
<title>public.items</title>
<polygon fill="white" stroke="none" points="-4,4 -4,-628.8 357.67,-628.8 357.67,4 -4,4"/>
<!-- public.items -->
<g id="node1" class="node">
<title>public.items</title>
<polygon fill="#efefef" stroke="none" points="46.2,-543 46.2,-578.6 299.88,-578.6 299.88,-543 46.2,-543"/>
<polygon fill="none" stroke="black" points="46.2,-543 46.2,-578.6 299.88,-578.6 299.88,-543 46.2,-543"/>
<text text-anchor="start" x="66.55" y="-556.4" font-family="Arial Bold" font-size="18.00">public.items</text>
<text text-anchor="start" x="155.04" y="-556.4" font-family="Arial" font-size="14.00">    </text>
<text text-anchor="start" x="186.16" y="-556.4" font-family="Arial" font-size="14.00" fill="#666666">[BASE TABLE]</text>
<polygon fill="none" stroke="black" points="46.2,-512.2 46.2,-543 299.88,-543 299.88,-512.2 46.2,-512.2"/>
<text text-anchor="start" x="53.2" y="-524.4" font-family="Arial" font-size="14.00">id </text>
<text text-anchor="start" x="67.99" y="-524.4" font-family="Arial" font-size="14.00" fill="#666666">[uuid]</text>
<polygon fill="none" stroke="black" points="46.2,-481.4 46.2,-512.2 299.88,-512.2 299.88,-481.4 46.2,-481.4"/>
<text text-anchor="start" x="53.2" y="-493.6" font-family="Arial" font-size="14.00">market_id </text>
<text text-anchor="start" x="118.56" y="-493.6" font-family="Arial" font-size="14.00" fill="#666666">[uuid]</text>
<polygon fill="none" stroke="black" points="46.2,-450.6 46.2,-481.4 299.88,-481.4 299.88,-450.6 46.2,-450.6"/>
<text text-anchor="start" x="53.2" y="-462.8" font-family="Arial" font-size="14.00">name </text>
<text text-anchor="start" x="92.11" y="-462.8" font-family="Arial" font-size="14.00" fill="#666666">[text]</text>
<polygon fill="none" stroke="black" points="46.2,-419.8 46.2,-450.6 299.88,-450.6 299.88,-419.8 46.2,-419.8"/>
<text text-anchor="start" x="53.2" y="-432" font-family="Arial" font-size="14.00">price </text>
<text text-anchor="start" x="87.43" y="-432" font-family="Arial" font-size="14.00" fill="#666666">[numeric]</text>
<polygon fill="none" stroke="black" points="46.2,-389 46.2,-419.8 299.88,-419.8 299.88,-389 46.2,-389"/>
<text text-anchor="start" x="53.2" y="-401.2" font-family="Arial" font-size="14.00">created_at </text>
<text text-anchor="start" x="123.25" y="-401.2" font-family="Arial" font-size="14.00" fill="#666666">[timestamp with time zone]</text>
<polygon fill="none" stroke="black" points="46.2,-358.2 46.2,-389 299.88,-389 299.88,-358.2 46.2,-358.2"/>
<text text-anchor="start" x="53.2" y="-370.4" font-family="Arial" font-size="14.00">updated_at </text>
<text text-anchor="start" x="127.16" y="-370.4" font-family="Arial" font-size="14.00" fill="#666666">[timestamp with time zone]</text>
<polygon fill="none" stroke="black" stroke-width="3" points="44.7,-356.7 44.7,-580.1 301.38,-580.1 301.38,-356.7 44.7,-356.7"/>
</g>
<!-- public.markets -->
<g id="node2" class="node">
<title>public.markets</title>
<polygon fill="#efefef" stroke="none" points="46.2,-197.2 46.2,-232.8 299.88,-232.8 299.88,-197.2 46.2,-197.2"/>
<polygon fill="none" stroke="black" points="46.2,-197.2 46.2,-232.8 299.88,-232.8 299.88,-197.2 46.2,-197.2"/>
<text text-anchor="start" x="57.56" y="-210.6" font-family="Arial Bold" font-size="18.00">public.markets</text>
<text text-anchor="start" x="164.03" y="-210.6" font-family="Arial" font-size="14.00">    </text>
<text text-anchor="start" x="195.15" y="-210.6" font-family="Arial" font-size="14.00" fill="#666666">[BASE TABLE]</text>
<polygon fill="none" stroke="black" points="46.2,-166.4 46.2,-197.2 299.88,-197.2 299.88,-166.4 46.2,-166.4"/>
<text text-anchor="start" x="53.2" y="-178.6" font-family="Arial" font-size="14.00">id </text>
<text text-anchor="start" x="67.99" y="-178.6" font-family="Arial" font-size="14.00" fill="#666666">[uuid]</text>
<polygon fill="none" stroke="black" points="46.2,-135.6 46.2,-166.4 299.88,-166.4 299.88,-135.6 46.2,-135.6"/>
<text text-anchor="start" x="53.2" y="-147.8" font-family="Arial" font-size="14.00">name </text>
<text text-anchor="start" x="92.11" y="-147.8" font-family="Arial" font-size="14.00" fill="#666666">[text]</text>
<polygon fill="none" stroke="black" points="46.2,-104.8 46.2,-135.6 299.88,-135.6 299.88,-104.8 46.2,-104.8"/>
<text text-anchor="start" x="53.2" y="-117" font-family="Arial" font-size="14.00">description </text>
<text text-anchor="start" x="124.79" y="-117" font-family="Arial" font-size="14.00" fill="#666666">[text]</text>
<polygon fill="none" stroke="black" points="46.2,-74 46.2,-104.8 299.88,-104.8 299.88,-74 46.2,-74"/>
<text text-anchor="start" x="53.2" y="-86.2" font-family="Arial" font-size="14.00">created_at </text>
<text text-anchor="start" x="123.25" y="-86.2" font-family="Arial" font-size="14.00" fill="#666666">[timestamp with time zone]</text>
<polygon fill="none" stroke="black" points="46.2,-43.2 46.2,-74 299.88,-74 299.88,-43.2 46.2,-43.2"/>
<text text-anchor="start" x="53.2" y="-55.4" font-family="Arial" font-size="14.00">updated_at </text>
<text text-anchor="start" x="127.16" y="-55.4" font-family="Arial" font-size="14.00" fill="#666666">[timestamp with time zone]</text>
</g>
<!-- public.items&#45;&gt;public.markets -->
<g id="edge1" class="edge">
<title>public.items:market_id&#45;&gt;public.markets:id</title>
<path fill="none" stroke="black" d="M311,-494.45C370.7,-465.62 367.33,-181.8 300.88,-181.8"/>
<polygon fill="black" stroke="black" points="310.95,-494.46 300.19,-492.34 305.75,-495.67 301.53,-496.65 301.53,-496.65 301.53,-496.65 305.75,-495.67 302.23,-501.11 310.95,-494.46"/>
</g>
</g>
</svg>
