<?xml version="1.0" encoding="UTF-8" standalone="no"?>
<!DOCTYPE svg PUBLIC "-//W3C//DTD SVG 1.1//EN"
 "http://www.w3.org/Graphics/SVG/1.1/DTD/svg11.dtd">
<!-- Generated by graphviz version 2.40.1 (20161225.0304)
 -->
<!-- Title: share_cart Pages: 1 -->
<svg width="390pt" height="556pt"
 viewBox="0.00 0.00 390.00 556.00" xmlns="http://www.w3.org/2000/svg" xmlns:xlink="http://www.w3.org/1999/xlink">
<g id="graph0" class="graph" transform="scale(1 1) rotate(0) translate(4 552)">
<title>share_cart</title>
<polygon fill="#ffffff" stroke="transparent" points="-4,4 -4,-552 386,-552 386,4 -4,4"/>
<!-- main.users -->
<g id="node1" class="node">
<title>main.users</title>
<polygon fill="#efefef" stroke="transparent" points="49,-162.5 49,-197.5 332,-197.5 332,-162.5 49,-162.5"/>
<polygon fill="none" stroke="#000000" points="49,-162.5 49,-197.5 332,-197.5 332,-162.5 49,-162.5"/>
<text text-anchor="start" x="82.7132" y="-175.3" font-family="Arial Bold" font-size="18.00" fill="#000000">main.users</text>
<text text-anchor="start" x="170.7188" y="-175.3" font-family="Arial" font-size="14.00" fill="#000000">    </text>
<text text-anchor="start" x="204.9236" y="-175.3" font-family="Arial" font-size="14.00" fill="#666666">[BASE TABLE]</text>
<polygon fill="none" stroke="#000000" points="49,-132.5 49,-162.5 332,-162.5 332,-132.5 49,-132.5"/>
<text text-anchor="start" x="56" y="-143.9" font-family="Arial" font-size="14.00" fill="#000000">id    </text>
<text text-anchor="start" x="101.094" y="-143.9" font-family="Arial" font-size="14.00" fill="#666666">[integer]</text>
<polygon fill="none" stroke="#000000" points="49,-102.5 49,-132.5 332,-132.5 332,-102.5 49,-102.5"/>
<text text-anchor="start" x="56" y="-113.9" font-family="Arial" font-size="14.00" fill="#000000">name    </text>
<text text-anchor="start" x="125.2132" y="-113.9" font-family="Arial" font-size="14.00" fill="#666666">[text]</text>
<polygon fill="none" stroke="#000000" points="49,-72.5 49,-102.5 332,-102.5 332,-72.5 49,-72.5"/>
<text text-anchor="start" x="56" y="-83.9" font-family="Arial" font-size="14.00" fill="#000000">created_at    </text>
<text text-anchor="start" x="156.3422" y="-83.9" font-family="Arial" font-size="14.00" fill="#666666">[timestamp with time zone]</text>
<polygon fill="none" stroke="#000000" points="49,-42.5 49,-72.5 332,-72.5 332,-42.5 49,-42.5"/>
<text text-anchor="start" x="55.5344" y="-53.9" font-family="Arial" font-size="14.00" fill="#000000">updated_at    </text>
<text text-anchor="start" x="159.7812" y="-53.9" font-family="Arial" font-size="14.00" fill="#666666">[timestamp with time zone]</text>
</g>
<!-- main.auth_subjects -->
<g id="node2" class="node">
<title>main.auth_subjects</title>
<polygon fill="#efefef" stroke="transparent" points="43,-469.5 43,-504.5 339,-504.5 339,-469.5 43,-469.5"/>
<polygon fill="none" stroke="#000000" points="43,-469.5 43,-504.5 339,-504.5 339,-469.5 43,-469.5"/>
<text text-anchor="start" x="49.6945" y="-482.3" font-family="Arial Bold" font-size="18.00" fill="#000000">main.auth_subjects</text>
<text text-anchor="start" x="204.7375" y="-482.3" font-family="Arial" font-size="14.00" fill="#000000">    </text>
<text text-anchor="start" x="238.9423" y="-482.3" font-family="Arial" font-size="14.00" fill="#666666">[BASE TABLE]</text>
<polygon fill="none" stroke="#000000" points="43,-439.5 43,-469.5 339,-469.5 339,-439.5 43,-439.5"/>
<text text-anchor="start" x="50" y="-450.9" font-family="Arial" font-size="14.00" fill="#000000">id    </text>
<text text-anchor="start" x="95.094" y="-450.9" font-family="Arial" font-size="14.00" fill="#666666">[integer]</text>
<polygon fill="none" stroke="#000000" points="43,-409.5 43,-439.5 339,-439.5 339,-409.5 43,-409.5"/>
<text text-anchor="start" x="50" y="-420.9" font-family="Arial" font-size="14.00" fill="#000000">created_at    </text>
<text text-anchor="start" x="150.3422" y="-420.9" font-family="Arial" font-size="14.00" fill="#666666">[timestamp with time zone]</text>
<polygon fill="none" stroke="#000000" points="43,-379.5 43,-409.5 339,-409.5 339,-379.5 43,-379.5"/>
<text text-anchor="start" x="50" y="-390.9" font-family="Arial" font-size="14.00" fill="#000000">updated_at    </text>
<text text-anchor="start" x="154.2468" y="-390.9" font-family="Arial" font-size="14.00" fill="#666666">[timestamp with time zone]</text>
<polygon fill="none" stroke="#000000" points="43,-349.5 43,-379.5 339,-379.5 339,-349.5 43,-349.5"/>
<text text-anchor="start" x="50" y="-360.9" font-family="Arial" font-size="14.00" fill="#000000">user_id    </text>
<text text-anchor="start" x="130.1024" y="-360.9" font-family="Arial" font-size="14.00" fill="#666666">[integer]</text>
<polygon fill="none" stroke="#000000" points="43,-319.5 43,-349.5 339,-349.5 339,-319.5 43,-319.5"/>
<text text-anchor="start" x="50" y="-330.9" font-family="Arial" font-size="14.00" fill="#000000">subject    </text>
<text text-anchor="start" x="128.5498" y="-330.9" font-family="Arial" font-size="14.00" fill="#666666">[text]</text>
</g>
<!-- main.auth_subjects&#45;&gt;main.users -->
<g id="edge1" class="edge">
<title>main.auth_subjects:user_id&#45;&gt;main.users:id</title>
<path fill="none" stroke="#000000" d="M33.0588,-362.9121C6.7988,-353.3818 19.771,-303.3021 43,-277 128.6825,-179.982 246.3175,-338.018 332,-241 359.5082,-209.8526 373.5556,-147.5 332,-147.5"/>
<polygon fill="#000000" stroke="#000000" points="33.1252,-362.9226 42.2902,-368.9437 38.0626,-363.7113 43,-364.5 43,-364.5 43,-364.5 38.0626,-363.7113 43.7098,-360.0563 33.1252,-362.9226 33.1252,-362.9226"/>
</g>
</g>
</svg>
