<?xml version="1.0" encoding="UTF-8" standalone="no"?>
<!DOCTYPE svg PUBLIC "-//W3C//DTD SVG 1.1//EN"
 "http://www.w3.org/Graphics/SVG/1.1/DTD/svg11.dtd">
<!-- Generated by graphviz version 2.40.1 (20161225.0304)
 -->
<!-- Title: share_cart Pages: 1 -->
<svg width="398pt" height="556pt"
 viewBox="0.00 0.00 398.00 556.00" xmlns="http://www.w3.org/2000/svg" xmlns:xlink="http://www.w3.org/1999/xlink">
<g id="graph0" class="graph" transform="scale(1 1) rotate(0) translate(4 552)">
<title>share_cart</title>
<polygon fill="#ffffff" stroke="transparent" points="-4,4 -4,-552 394,-552 394,4 -4,4"/>
<!-- public.users -->
<g id="node1" class="node">
<title>public.users</title>
<polygon fill="#efefef" stroke="transparent" points="53,-162.5 53,-197.5 336,-197.5 336,-162.5 53,-162.5"/>
<polygon fill="none" stroke="#000000" points="53,-162.5 53,-197.5 336,-197.5 336,-162.5 53,-162.5"/>
<text text-anchor="start" x="82.7091" y="-175.3" font-family="Arial Bold" font-size="18.00" fill="#000000">public.users</text>
<text text-anchor="start" x="178.7229" y="-175.3" font-family="Arial" font-size="14.00" fill="#000000">    </text>
<text text-anchor="start" x="212.9277" y="-175.3" font-family="Arial" font-size="14.00" fill="#666666">[BASE TABLE]</text>
<polygon fill="none" stroke="#000000" points="53,-132.5 53,-162.5 336,-162.5 336,-132.5 53,-132.5"/>
<text text-anchor="start" x="60" y="-143.9" font-family="Arial" font-size="14.00" fill="#000000">id    </text>
<text text-anchor="start" x="105.094" y="-143.9" font-family="Arial" font-size="14.00" fill="#666666">[integer]</text>
<polygon fill="none" stroke="#000000" points="53,-102.5 53,-132.5 336,-132.5 336,-102.5 53,-102.5"/>
<text text-anchor="start" x="60" y="-113.9" font-family="Arial" font-size="14.00" fill="#000000">name    </text>
<text text-anchor="start" x="129.2132" y="-113.9" font-family="Arial" font-size="14.00" fill="#666666">[text]</text>
<polygon fill="none" stroke="#000000" points="53,-72.5 53,-102.5 336,-102.5 336,-72.5 53,-72.5"/>
<text text-anchor="start" x="60" y="-83.9" font-family="Arial" font-size="14.00" fill="#000000">created_at    </text>
<text text-anchor="start" x="160.3422" y="-83.9" font-family="Arial" font-size="14.00" fill="#666666">[timestamp with time zone]</text>
<polygon fill="none" stroke="#000000" points="53,-42.5 53,-72.5 336,-72.5 336,-42.5 53,-42.5"/>
<text text-anchor="start" x="59.5344" y="-53.9" font-family="Arial" font-size="14.00" fill="#000000">updated_at    </text>
<text text-anchor="start" x="163.7812" y="-53.9" font-family="Arial" font-size="14.00" fill="#666666">[timestamp with time zone]</text>
</g>
<!-- public.auth_subjects -->
<g id="node2" class="node">
<title>public.auth_subjects</title>
<polygon fill="#efefef" stroke="transparent" points="43,-469.5 43,-504.5 347,-504.5 347,-469.5 43,-469.5"/>
<polygon fill="none" stroke="#000000" points="43,-469.5 43,-504.5 347,-504.5 347,-469.5 43,-469.5"/>
<text text-anchor="start" x="49.6904" y="-482.3" font-family="Arial Bold" font-size="18.00" fill="#000000">public.auth_subjects</text>
<text text-anchor="start" x="212.7416" y="-482.3" font-family="Arial" font-size="14.00" fill="#000000">    </text>
<text text-anchor="start" x="246.9464" y="-482.3" font-family="Arial" font-size="14.00" fill="#666666">[BASE TABLE]</text>
<polygon fill="none" stroke="#000000" points="43,-439.5 43,-469.5 347,-469.5 347,-439.5 43,-439.5"/>
<text text-anchor="start" x="50" y="-450.9" font-family="Arial" font-size="14.00" fill="#000000">id    </text>
<text text-anchor="start" x="95.094" y="-450.9" font-family="Arial" font-size="14.00" fill="#666666">[integer]</text>
<polygon fill="none" stroke="#000000" points="43,-409.5 43,-439.5 347,-439.5 347,-409.5 43,-409.5"/>
<text text-anchor="start" x="50" y="-420.9" font-family="Arial" font-size="14.00" fill="#000000">user_id    </text>
<text text-anchor="start" x="130.1024" y="-420.9" font-family="Arial" font-size="14.00" fill="#666666">[integer]</text>
<polygon fill="none" stroke="#000000" points="43,-379.5 43,-409.5 347,-409.5 347,-379.5 43,-379.5"/>
<text text-anchor="start" x="50" y="-390.9" font-family="Arial" font-size="14.00" fill="#000000">subject    </text>
<text text-anchor="start" x="128.5498" y="-390.9" font-family="Arial" font-size="14.00" fill="#666666">[text]</text>
<polygon fill="none" stroke="#000000" points="43,-349.5 43,-379.5 347,-379.5 347,-349.5 43,-349.5"/>
<text text-anchor="start" x="50" y="-360.9" font-family="Arial" font-size="14.00" fill="#000000">created_at    </text>
<text text-anchor="start" x="150.3422" y="-360.9" font-family="Arial" font-size="14.00" fill="#666666">[timestamp with time zone]</text>
<polygon fill="none" stroke="#000000" points="43,-319.5 43,-349.5 347,-349.5 347,-319.5 43,-319.5"/>
<text text-anchor="start" x="50" y="-330.9" font-family="Arial" font-size="14.00" fill="#000000">updated_at    </text>
<text text-anchor="start" x="154.2468" y="-330.9" font-family="Arial" font-size="14.00" fill="#666666">[timestamp with time zone]</text>
</g>
<!-- public.auth_subjects&#45;&gt;public.users -->
<g id="edge1" class="edge">
<title>public.auth_subjects:user_id&#45;&gt;public.users:id</title>
<path fill="none" stroke="#000000" d="M33.0206,-423.6413C-20.0725,-413.8849 1.939,-323.4148 43,-277 129.9327,-178.7324 249.0673,-339.2676 336,-241 363.5343,-209.8756 377.5556,-147.5 336,-147.5"/>
<polygon fill="#000000" stroke="#000000" points="33.0368,-423.6426 42.6142,-428.9834 38.0184,-424.0713 43,-424.5 43,-424.5 43,-424.5 38.0184,-424.0713 43.3858,-420.0166 33.0368,-423.6426 33.0368,-423.6426"/>
</g>
</g>
</svg>
