<?xml version="1.0" encoding="UTF-8" standalone="no"?>
<!DOCTYPE svg PUBLIC "-//W3C//DTD SVG 1.1//EN"
 "http://www.w3.org/Graphics/SVG/1.1/DTD/svg11.dtd">
<!-- Generated by graphviz version 12.1.2 (20240928.0832)
 -->
<!-- Title: share_cart Pages: 1 -->
<svg width="1140pt" height="627pt"
 viewBox="0.00 0.00 1140.35 626.80" xmlns="http://www.w3.org/2000/svg" xmlns:xlink="http://www.w3.org/1999/xlink">
<g id="graph0" class="graph" transform="scale(1 1) rotate(0) translate(4 622.8)">
<title>share_cart</title>
<polygon fill="white" stroke="none" points="-4,4 -4,-622.8 1136.35,-622.8 1136.35,4 -4,4"/>
<!-- public.users -->
<g id="node1" class="node">
<title>public.users</title>
<polygon fill="#efefef" stroke="none" points="59.34,-181.8 59.34,-217.4 313.02,-217.4 313.02,-181.8 59.34,-181.8"/>
<polygon fill="none" stroke="black" points="59.34,-181.8 59.34,-217.4 313.02,-217.4 313.02,-181.8 59.34,-181.8"/>
<text text-anchor="start" x="80.69" y="-195.2" font-family="Arial Bold" font-size="18.00">public.users</text>
<text text-anchor="start" x="167.18" y="-195.2" font-family="Arial" font-size="14.00">    </text>
<text text-anchor="start" x="198.3" y="-195.2" font-family="Arial" font-size="14.00" fill="#666666">[BASE TABLE]</text>
<polygon fill="none" stroke="black" points="59.34,-151 59.34,-181.8 313.02,-181.8 313.02,-151 59.34,-151"/>
<text text-anchor="start" x="66.34" y="-163.2" font-family="Arial" font-size="14.00">id </text>
<text text-anchor="start" x="81.13" y="-163.2" font-family="Arial" font-size="14.00" fill="#666666">[uuid]</text>
<polygon fill="none" stroke="black" points="59.34,-120.2 59.34,-151 313.02,-151 313.02,-120.2 59.34,-120.2"/>
<text text-anchor="start" x="66.34" y="-132.4" font-family="Arial" font-size="14.00">name </text>
<text text-anchor="start" x="105.25" y="-132.4" font-family="Arial" font-size="14.00" fill="#666666">[text]</text>
<polygon fill="none" stroke="black" points="59.34,-89.4 59.34,-120.2 313.02,-120.2 313.02,-89.4 59.34,-89.4"/>
<text text-anchor="start" x="66.34" y="-101.6" font-family="Arial" font-size="14.00">created_at </text>
<text text-anchor="start" x="136.39" y="-101.6" font-family="Arial" font-size="14.00" fill="#666666">[timestamp with time zone]</text>
<polygon fill="none" stroke="black" points="59.34,-58.6 59.34,-89.4 313.02,-89.4 313.02,-58.6 59.34,-58.6"/>
<text text-anchor="start" x="66.34" y="-70.8" font-family="Arial" font-size="14.00">updated_at </text>
<text text-anchor="start" x="140.3" y="-70.8" font-family="Arial" font-size="14.00" fill="#666666">[timestamp with time zone]</text>
</g>
<!-- public.auth_subjects -->
<g id="node2" class="node">
<title>public.auth_subjects</title>
<polygon fill="#efefef" stroke="none" points="43.2,-524.6 43.2,-560.2 329.16,-560.2 329.16,-524.6 43.2,-524.6"/>
<polygon fill="none" stroke="black" points="43.2,-524.6 43.2,-560.2 329.16,-560.2 329.16,-524.6 43.2,-524.6"/>
<text text-anchor="start" x="50.2" y="-538" font-family="Arial Bold" font-size="18.00">public.auth_subjects</text>
<text text-anchor="start" x="197.67" y="-538" font-family="Arial" font-size="14.00">    </text>
<text text-anchor="start" x="228.79" y="-538" font-family="Arial" font-size="14.00" fill="#666666">[BASE TABLE]</text>
<polygon fill="none" stroke="black" points="43.2,-493.8 43.2,-524.6 329.16,-524.6 329.16,-493.8 43.2,-493.8"/>
<text text-anchor="start" x="50.2" y="-506" font-family="Arial" font-size="14.00">id </text>
<text text-anchor="start" x="64.99" y="-506" font-family="Arial" font-size="14.00" fill="#666666">[uuid]</text>
<polygon fill="none" stroke="black" points="43.2,-463 43.2,-493.8 329.16,-493.8 329.16,-463 43.2,-463"/>
<text text-anchor="start" x="50.2" y="-475.2" font-family="Arial" font-size="14.00">user_id </text>
<text text-anchor="start" x="100.01" y="-475.2" font-family="Arial" font-size="14.00" fill="#666666">[uuid]</text>
<polygon fill="none" stroke="black" points="43.2,-432.2 43.2,-463 329.16,-463 329.16,-432.2 43.2,-432.2"/>
<text text-anchor="start" x="50.2" y="-444.4" font-family="Arial" font-size="14.00">subject </text>
<text text-anchor="start" x="98.45" y="-444.4" font-family="Arial" font-size="14.00" fill="#666666">[text]</text>
<polygon fill="none" stroke="black" points="43.2,-401.4 43.2,-432.2 329.16,-432.2 329.16,-401.4 43.2,-401.4"/>
<text text-anchor="start" x="50.2" y="-413.6" font-family="Arial" font-size="14.00">created_at </text>
<text text-anchor="start" x="120.25" y="-413.6" font-family="Arial" font-size="14.00" fill="#666666">[timestamp with time zone]</text>
<polygon fill="none" stroke="black" points="43.2,-370.6 43.2,-401.4 329.16,-401.4 329.16,-370.6 43.2,-370.6"/>
<text text-anchor="start" x="50.2" y="-382.8" font-family="Arial" font-size="14.00">updated_at </text>
<text text-anchor="start" x="124.16" y="-382.8" font-family="Arial" font-size="14.00" fill="#666666">[timestamp with time zone]</text>
</g>
<!-- public.auth_subjects&#45;&gt;public.users -->
<g id="edge1" class="edge">
<title>public.auth_subjects:user_id&#45;&gt;public.users:id</title>
<path fill="none" stroke="black" d="M340.08,-476.07C397.81,-447.52 379.92,-166.4 314.02,-166.4"/>
<polygon fill="black" stroke="black" points="340.22,-476.03 329.46,-473.94 335.03,-477.26 330.81,-478.25 330.81,-478.25 330.81,-478.25 335.03,-477.26 331.52,-482.7 340.22,-476.03"/>
</g>
<!-- public.markets -->
<g id="node3" class="node">
<title>public.markets</title>
<polygon fill="#efefef" stroke="none" points="623.34,-197.2 623.34,-232.8 877.02,-232.8 877.02,-197.2 623.34,-197.2"/>
<polygon fill="none" stroke="black" points="623.34,-197.2 623.34,-232.8 877.02,-232.8 877.02,-197.2 623.34,-197.2"/>
<text text-anchor="start" x="634.7" y="-210.6" font-family="Arial Bold" font-size="18.00">public.markets</text>
<text text-anchor="start" x="741.17" y="-210.6" font-family="Arial" font-size="14.00">    </text>
<text text-anchor="start" x="772.29" y="-210.6" font-family="Arial" font-size="14.00" fill="#666666">[BASE TABLE]</text>
<polygon fill="none" stroke="black" points="623.34,-166.4 623.34,-197.2 877.02,-197.2 877.02,-166.4 623.34,-166.4"/>
<text text-anchor="start" x="630.34" y="-178.6" font-family="Arial" font-size="14.00">id </text>
<text text-anchor="start" x="645.13" y="-178.6" font-family="Arial" font-size="14.00" fill="#666666">[uuid]</text>
<polygon fill="none" stroke="black" points="623.34,-135.6 623.34,-166.4 877.02,-166.4 877.02,-135.6 623.34,-135.6"/>
<text text-anchor="start" x="630.34" y="-147.8" font-family="Arial" font-size="14.00">name </text>
<text text-anchor="start" x="669.25" y="-147.8" font-family="Arial" font-size="14.00" fill="#666666">[text]</text>
<polygon fill="none" stroke="black" points="623.34,-104.8 623.34,-135.6 877.02,-135.6 877.02,-104.8 623.34,-104.8"/>
<text text-anchor="start" x="630.34" y="-117" font-family="Arial" font-size="14.00">description </text>
<text text-anchor="start" x="701.93" y="-117" font-family="Arial" font-size="14.00" fill="#666666">[text]</text>
<polygon fill="none" stroke="black" points="623.34,-74 623.34,-104.8 877.02,-104.8 877.02,-74 623.34,-74"/>
<text text-anchor="start" x="630.34" y="-86.2" font-family="Arial" font-size="14.00">created_at </text>
<text text-anchor="start" x="700.39" y="-86.2" font-family="Arial" font-size="14.00" fill="#666666">[timestamp with time zone]</text>
<polygon fill="none" stroke="black" points="623.34,-43.2 623.34,-74 877.02,-74 877.02,-43.2 623.34,-43.2"/>
<text text-anchor="start" x="630.34" y="-55.4" font-family="Arial" font-size="14.00">updated_at </text>
<text text-anchor="start" x="704.3" y="-55.4" font-family="Arial" font-size="14.00" fill="#666666">[timestamp with time zone]</text>
</g>
<!-- public.items -->
<g id="node4" class="node">
<title>public.items</title>
<polygon fill="#efefef" stroke="none" points="433.34,-540 433.34,-575.6 687.02,-575.6 687.02,-540 433.34,-540"/>
<polygon fill="none" stroke="black" points="433.34,-540 433.34,-575.6 687.02,-575.6 687.02,-540 433.34,-540"/>
<text text-anchor="start" x="453.69" y="-553.4" font-family="Arial Bold" font-size="18.00">public.items</text>
<text text-anchor="start" x="542.18" y="-553.4" font-family="Arial" font-size="14.00">    </text>
<text text-anchor="start" x="573.3" y="-553.4" font-family="Arial" font-size="14.00" fill="#666666">[BASE TABLE]</text>
<polygon fill="none" stroke="black" points="433.34,-509.2 433.34,-540 687.02,-540 687.02,-509.2 433.34,-509.2"/>
<text text-anchor="start" x="440.34" y="-521.4" font-family="Arial" font-size="14.00">id </text>
<text text-anchor="start" x="455.13" y="-521.4" font-family="Arial" font-size="14.00" fill="#666666">[uuid]</text>
<polygon fill="none" stroke="black" points="433.34,-478.4 433.34,-509.2 687.02,-509.2 687.02,-478.4 433.34,-478.4"/>
<text text-anchor="start" x="440.34" y="-490.6" font-family="Arial" font-size="14.00">market_id </text>
<text text-anchor="start" x="505.7" y="-490.6" font-family="Arial" font-size="14.00" fill="#666666">[uuid]</text>
<polygon fill="none" stroke="black" points="433.34,-447.6 433.34,-478.4 687.02,-478.4 687.02,-447.6 433.34,-447.6"/>
<text text-anchor="start" x="440.34" y="-459.8" font-family="Arial" font-size="14.00">name </text>
<text text-anchor="start" x="479.25" y="-459.8" font-family="Arial" font-size="14.00" fill="#666666">[text]</text>
<polygon fill="none" stroke="black" points="433.34,-416.8 433.34,-447.6 687.02,-447.6 687.02,-416.8 433.34,-416.8"/>
<text text-anchor="start" x="440.34" y="-429" font-family="Arial" font-size="14.00">price </text>
<text text-anchor="start" x="474.57" y="-429" font-family="Arial" font-size="14.00" fill="#666666">[numeric]</text>
<polygon fill="none" stroke="black" points="433.34,-386 433.34,-416.8 687.02,-416.8 687.02,-386 433.34,-386"/>
<text text-anchor="start" x="440.34" y="-398.2" font-family="Arial" font-size="14.00">created_at </text>
<text text-anchor="start" x="510.39" y="-398.2" font-family="Arial" font-size="14.00" fill="#666666">[timestamp with time zone]</text>
<polygon fill="none" stroke="black" points="433.34,-355.2 433.34,-386 687.02,-386 687.02,-355.2 433.34,-355.2"/>
<text text-anchor="start" x="440.34" y="-367.4" font-family="Arial" font-size="14.00">updated_at </text>
<text text-anchor="start" x="514.3" y="-367.4" font-family="Arial" font-size="14.00" fill="#666666">[timestamp with time zone]</text>
</g>
<!-- public.items&#45;&gt;public.markets -->
<g id="edge2" class="edge">
<title>public.items:market_id&#45;&gt;public.markets:id</title>
<path fill="none" stroke="black" d="M698.18,-493.14C765.15,-483.81 726.09,-378.55 687.02,-312 670.56,-283.96 639.87,-304 623.34,-276 602.05,-239.95 580.47,-181.8 622.34,-181.8"/>
<polygon fill="black" stroke="black" points="698.33,-493.13 688.06,-489.29 693.01,-493.47 688.69,-493.76 688.69,-493.76 688.69,-493.76 693.01,-493.47 688.65,-498.27 698.33,-493.13"/>
</g>
<!-- public.market_images -->
<g id="node5" class="node">
<title>public.market_images</title>
<polygon fill="#efefef" stroke="none" points="791.21,-524.6 791.21,-560.2 1089.15,-560.2 1089.15,-524.6 791.21,-524.6"/>
<polygon fill="none" stroke="black" points="791.21,-524.6 791.21,-560.2 1089.15,-560.2 1089.15,-524.6 791.21,-524.6"/>
<text text-anchor="start" x="798.21" y="-538" font-family="Arial Bold" font-size="18.00">public.market_images</text>
<text text-anchor="start" x="957.66" y="-538" font-family="Arial" font-size="14.00">    </text>
<text text-anchor="start" x="988.78" y="-538" font-family="Arial" font-size="14.00" fill="#666666">[BASE TABLE]</text>
<polygon fill="none" stroke="black" points="791.21,-493.8 791.21,-524.6 1089.15,-524.6 1089.15,-493.8 791.21,-493.8"/>
<text text-anchor="start" x="798.21" y="-506" font-family="Arial" font-size="14.00">id </text>
<text text-anchor="start" x="813" y="-506" font-family="Arial" font-size="14.00" fill="#666666">[uuid]</text>
<polygon fill="none" stroke="black" points="791.21,-463 791.21,-493.8 1089.15,-493.8 1089.15,-463 791.21,-463"/>
<text text-anchor="start" x="798.21" y="-475.2" font-family="Arial" font-size="14.00">market_id </text>
<text text-anchor="start" x="863.57" y="-475.2" font-family="Arial" font-size="14.00" fill="#666666">[uuid]</text>
<polygon fill="none" stroke="black" points="791.21,-432.2 791.21,-463 1089.15,-463 1089.15,-432.2 791.21,-432.2"/>
<text text-anchor="start" x="798.21" y="-444.4" font-family="Arial" font-size="14.00">image_id </text>
<text text-anchor="start" x="858.91" y="-444.4" font-family="Arial" font-size="14.00" fill="#666666">[uuid]</text>
<polygon fill="none" stroke="black" points="791.21,-401.4 791.21,-432.2 1089.15,-432.2 1089.15,-401.4 791.21,-401.4"/>
<text text-anchor="start" x="798.21" y="-413.6" font-family="Arial" font-size="14.00">created_at </text>
<text text-anchor="start" x="868.26" y="-413.6" font-family="Arial" font-size="14.00" fill="#666666">[timestamp with time zone]</text>
<polygon fill="none" stroke="black" points="791.21,-370.6 791.21,-401.4 1089.15,-401.4 1089.15,-370.6 791.21,-370.6"/>
<text text-anchor="start" x="798.21" y="-382.8" font-family="Arial" font-size="14.00">updated_at </text>
<text text-anchor="start" x="872.17" y="-382.8" font-family="Arial" font-size="14.00" fill="#666666">[timestamp with time zone]</text>
</g>
<!-- public.market_images&#45;&gt;public.markets -->
<g id="edge3" class="edge">
<title>public.market_images:market_id&#45;&gt;public.markets:id</title>
<path fill="none" stroke="black" d="M780.1,-477.59C726.9,-468.36 759.75,-382.49 791.21,-327.4 813.26,-288.79 854.9,-314.56 877.02,-276 897.86,-239.68 919.89,-181.8 878.02,-181.8"/>
<polygon fill="black" stroke="black" points="779.91,-477.57 789.52,-482.86 785.23,-478 789.54,-478.35 789.54,-478.35 789.54,-478.35 785.23,-478 790.24,-473.89 779.91,-477.57"/>
</g>
</g>
</svg>
