<?xml version="1.0" encoding="UTF-8" standalone="no"?>
<!DOCTYPE svg PUBLIC "-//W3C//DTD SVG 1.1//EN"
 "http://www.w3.org/Graphics/SVG/1.1/DTD/svg11.dtd">
<!-- Generated by graphviz version 2.40.1 (20161225.0304)
 -->
<!-- Title: share_cart Pages: 1 -->
<svg width="1206pt" height="616pt"
 viewBox="0.00 0.00 1206.00 616.00" xmlns="http://www.w3.org/2000/svg" xmlns:xlink="http://www.w3.org/1999/xlink">
<g id="graph0" class="graph" transform="scale(1 1) rotate(0) translate(4 612)">
<title>share_cart</title>
<polygon fill="#ffffff" stroke="transparent" points="-4,4 -4,-612 1202,-612 1202,4 -4,4"/>
<!-- public.users -->
<g id="node1" class="node">
<title>public.users</title>
<polygon fill="#efefef" stroke="transparent" points="53,-177.5 53,-212.5 336,-212.5 336,-177.5 53,-177.5"/>
<polygon fill="none" stroke="#000000" points="53,-177.5 53,-212.5 336,-212.5 336,-177.5 53,-177.5"/>
<text text-anchor="start" x="82.7091" y="-190.3" font-family="Arial Bold" font-size="18.00" fill="#000000">public.users</text>
<text text-anchor="start" x="178.7229" y="-190.3" font-family="Arial" font-size="14.00" fill="#000000">    </text>
<text text-anchor="start" x="212.9277" y="-190.3" font-family="Arial" font-size="14.00" fill="#666666">[BASE TABLE]</text>
<polygon fill="none" stroke="#000000" points="53,-147.5 53,-177.5 336,-177.5 336,-147.5 53,-147.5"/>
<text text-anchor="start" x="60" y="-158.9" font-family="Arial" font-size="14.00" fill="#000000">id    </text>
<text text-anchor="start" x="105.094" y="-158.9" font-family="Arial" font-size="14.00" fill="#666666">[uuid]</text>
<polygon fill="none" stroke="#000000" points="53,-117.5 53,-147.5 336,-147.5 336,-117.5 53,-117.5"/>
<text text-anchor="start" x="60" y="-128.9" font-family="Arial" font-size="14.00" fill="#000000">name    </text>
<text text-anchor="start" x="129.2132" y="-128.9" font-family="Arial" font-size="14.00" fill="#666666">[text]</text>
<polygon fill="none" stroke="#000000" points="53,-87.5 53,-117.5 336,-117.5 336,-87.5 53,-87.5"/>
<text text-anchor="start" x="60" y="-98.9" font-family="Arial" font-size="14.00" fill="#000000">created_at    </text>
<text text-anchor="start" x="160.3422" y="-98.9" font-family="Arial" font-size="14.00" fill="#666666">[timestamp with time zone]</text>
<polygon fill="none" stroke="#000000" points="53,-57.5 53,-87.5 336,-87.5 336,-57.5 53,-57.5"/>
<text text-anchor="start" x="59.5344" y="-68.9" font-family="Arial" font-size="14.00" fill="#000000">updated_at    </text>
<text text-anchor="start" x="163.7812" y="-68.9" font-family="Arial" font-size="14.00" fill="#666666">[timestamp with time zone]</text>
</g>
<!-- public.auth_subjects -->
<g id="node2" class="node">
<title>public.auth_subjects</title>
<polygon fill="#efefef" stroke="transparent" points="43,-514.5 43,-549.5 347,-549.5 347,-514.5 43,-514.5"/>
<polygon fill="none" stroke="#000000" points="43,-514.5 43,-549.5 347,-549.5 347,-514.5 43,-514.5"/>
<text text-anchor="start" x="49.6904" y="-527.3" font-family="Arial Bold" font-size="18.00" fill="#000000">public.auth_subjects</text>
<text text-anchor="start" x="212.7416" y="-527.3" font-family="Arial" font-size="14.00" fill="#000000">    </text>
<text text-anchor="start" x="246.9464" y="-527.3" font-family="Arial" font-size="14.00" fill="#666666">[BASE TABLE]</text>
<polygon fill="none" stroke="#000000" points="43,-484.5 43,-514.5 347,-514.5 347,-484.5 43,-484.5"/>
<text text-anchor="start" x="50" y="-495.9" font-family="Arial" font-size="14.00" fill="#000000">id    </text>
<text text-anchor="start" x="95.094" y="-495.9" font-family="Arial" font-size="14.00" fill="#666666">[uuid]</text>
<polygon fill="none" stroke="#000000" points="43,-454.5 43,-484.5 347,-484.5 347,-454.5 43,-454.5"/>
<text text-anchor="start" x="50" y="-465.9" font-family="Arial" font-size="14.00" fill="#000000">user_id    </text>
<text text-anchor="start" x="130.1024" y="-465.9" font-family="Arial" font-size="14.00" fill="#666666">[uuid]</text>
<polygon fill="none" stroke="#000000" points="43,-424.5 43,-454.5 347,-454.5 347,-424.5 43,-424.5"/>
<text text-anchor="start" x="50" y="-435.9" font-family="Arial" font-size="14.00" fill="#000000">subject    </text>
<text text-anchor="start" x="128.5498" y="-435.9" font-family="Arial" font-size="14.00" fill="#666666">[text]</text>
<polygon fill="none" stroke="#000000" points="43,-394.5 43,-424.5 347,-424.5 347,-394.5 43,-394.5"/>
<text text-anchor="start" x="50" y="-405.9" font-family="Arial" font-size="14.00" fill="#000000">created_at    </text>
<text text-anchor="start" x="150.3422" y="-405.9" font-family="Arial" font-size="14.00" fill="#666666">[timestamp with time zone]</text>
<polygon fill="none" stroke="#000000" points="43,-364.5 43,-394.5 347,-394.5 347,-364.5 43,-364.5"/>
<text text-anchor="start" x="50" y="-375.9" font-family="Arial" font-size="14.00" fill="#000000">updated_at    </text>
<text text-anchor="start" x="154.2468" y="-375.9" font-family="Arial" font-size="14.00" fill="#666666">[timestamp with time zone]</text>
</g>
<!-- public.auth_subjects&#45;&gt;public.users -->
<g id="edge1" class="edge">
<title>public.auth_subjects:user_id&#45;&gt;public.users:id</title>
<path fill="none" stroke="#000000" d="M32.7151,-468.5988C-19.7153,-458.7352 4.3732,-370.2955 43,-322 126.3748,-217.7555 252.6252,-360.2445 336,-256 361.9556,-223.5474 377.5556,-162.5 336,-162.5"/>
<polygon fill="#000000" stroke="#000000" points="33.0382,-468.627 42.6072,-473.9828 38.0191,-469.0635 43,-469.5 43,-469.5 43,-469.5 38.0191,-469.0635 43.3928,-465.0172 33.0382,-468.627 33.0382,-468.627"/>
</g>
<!-- public.markets -->
<g id="node3" class="node">
<title>public.markets</title>
<polygon fill="#efefef" stroke="transparent" points="653,-192.5 653,-227.5 936,-227.5 936,-192.5 653,-192.5"/>
<polygon fill="none" stroke="#000000" points="653,-192.5 653,-227.5 936,-227.5 936,-192.5 653,-192.5"/>
<text text-anchor="start" x="672.7119" y="-205.3" font-family="Arial Bold" font-size="18.00" fill="#000000">public.markets</text>
<text text-anchor="start" x="788.7201" y="-205.3" font-family="Arial" font-size="14.00" fill="#000000">    </text>
<text text-anchor="start" x="822.9249" y="-205.3" font-family="Arial" font-size="14.00" fill="#666666">[BASE TABLE]</text>
<polygon fill="none" stroke="#000000" points="653,-162.5 653,-192.5 936,-192.5 936,-162.5 653,-162.5"/>
<text text-anchor="start" x="660" y="-173.9" font-family="Arial" font-size="14.00" fill="#000000">id    </text>
<text text-anchor="start" x="705.094" y="-173.9" font-family="Arial" font-size="14.00" fill="#666666">[uuid]</text>
<polygon fill="none" stroke="#000000" points="653,-132.5 653,-162.5 936,-162.5 936,-132.5 653,-132.5"/>
<text text-anchor="start" x="660" y="-143.9" font-family="Arial" font-size="14.00" fill="#000000">name    </text>
<text text-anchor="start" x="729.2132" y="-143.9" font-family="Arial" font-size="14.00" fill="#666666">[text]</text>
<polygon fill="none" stroke="#000000" points="653,-102.5 653,-132.5 936,-132.5 936,-102.5 653,-102.5"/>
<text text-anchor="start" x="660" y="-113.9" font-family="Arial" font-size="14.00" fill="#000000">description    </text>
<text text-anchor="start" x="761.8822" y="-113.9" font-family="Arial" font-size="14.00" fill="#666666">[text]</text>
<polygon fill="none" stroke="#000000" points="653,-72.5 653,-102.5 936,-102.5 936,-72.5 653,-72.5"/>
<text text-anchor="start" x="660" y="-83.9" font-family="Arial" font-size="14.00" fill="#000000">created_at    </text>
<text text-anchor="start" x="760.3422" y="-83.9" font-family="Arial" font-size="14.00" fill="#666666">[timestamp with time zone]</text>
<polygon fill="none" stroke="#000000" points="653,-42.5 653,-72.5 936,-72.5 936,-42.5 653,-42.5"/>
<text text-anchor="start" x="659.5344" y="-53.9" font-family="Arial" font-size="14.00" fill="#000000">updated_at    </text>
<text text-anchor="start" x="763.7812" y="-53.9" font-family="Arial" font-size="14.00" fill="#666666">[timestamp with time zone]</text>
</g>
<!-- public.items -->
<g id="node4" class="node">
<title>public.items</title>
<polygon fill="#efefef" stroke="transparent" points="452,-529.5 452,-564.5 735,-564.5 735,-529.5 452,-529.5"/>
<polygon fill="none" stroke="#000000" points="452,-529.5 452,-564.5 735,-564.5 735,-529.5 452,-529.5"/>
<text text-anchor="start" x="482.214" y="-542.3" font-family="Arial Bold" font-size="18.00" fill="#000000">public.items</text>
<text text-anchor="start" x="577.218" y="-542.3" font-family="Arial" font-size="14.00" fill="#000000">    </text>
<text text-anchor="start" x="611.4228" y="-542.3" font-family="Arial" font-size="14.00" fill="#666666">[BASE TABLE]</text>
<polygon fill="none" stroke="#000000" points="452,-499.5 452,-529.5 735,-529.5 735,-499.5 452,-499.5"/>
<text text-anchor="start" x="459" y="-510.9" font-family="Arial" font-size="14.00" fill="#000000">id    </text>
<text text-anchor="start" x="504.094" y="-510.9" font-family="Arial" font-size="14.00" fill="#666666">[uuid]</text>
<polygon fill="none" stroke="#000000" points="452,-469.5 452,-499.5 735,-499.5 735,-469.5 452,-469.5"/>
<text text-anchor="start" x="459" y="-480.9" font-family="Arial" font-size="14.00" fill="#000000">market_id    </text>
<text text-anchor="start" x="554.6536" y="-480.9" font-family="Arial" font-size="14.00" fill="#666666">[uuid]</text>
<polygon fill="none" stroke="#000000" points="452,-439.5 452,-469.5 735,-469.5 735,-439.5 452,-439.5"/>
<text text-anchor="start" x="459" y="-450.9" font-family="Arial" font-size="14.00" fill="#000000">name    </text>
<text text-anchor="start" x="528.2132" y="-450.9" font-family="Arial" font-size="14.00" fill="#666666">[text]</text>
<polygon fill="none" stroke="#000000" points="452,-409.5 452,-439.5 735,-439.5 735,-409.5 452,-409.5"/>
<text text-anchor="start" x="459" y="-420.9" font-family="Arial" font-size="14.00" fill="#000000">price    </text>
<text text-anchor="start" x="523.5372" y="-420.9" font-family="Arial" font-size="14.00" fill="#666666">[numeric]</text>
<polygon fill="none" stroke="#000000" points="452,-379.5 452,-409.5 735,-409.5 735,-379.5 452,-379.5"/>
<text text-anchor="start" x="459" y="-390.9" font-family="Arial" font-size="14.00" fill="#000000">created_at    </text>
<text text-anchor="start" x="559.3422" y="-390.9" font-family="Arial" font-size="14.00" fill="#666666">[timestamp with time zone]</text>
<polygon fill="none" stroke="#000000" points="452,-349.5 452,-379.5 735,-379.5 735,-349.5 452,-349.5"/>
<text text-anchor="start" x="458.5344" y="-360.9" font-family="Arial" font-size="14.00" fill="#000000">updated_at    </text>
<text text-anchor="start" x="562.7812" y="-360.9" font-family="Arial" font-size="14.00" fill="#666666">[timestamp with time zone]</text>
</g>
<!-- public.items&#45;&gt;public.markets -->
<g id="edge2" class="edge">
<title>public.items:market_id&#45;&gt;public.markets:id</title>
<path fill="none" stroke="#000000" d="M745.3491,-483.7815C810.521,-474.1513 776.1154,-369.954 735,-307 713.2357,-273.6756 674.7643,-304.3244 653,-271 630.2769,-236.2074 611.4444,-177.5 653,-177.5"/>
<polygon fill="#000000" stroke="#000000" points="744.976,-483.8073 734.6883,-480.0108 739.988,-484.1537 735,-484.5 735,-484.5 735,-484.5 739.988,-484.1537 735.3117,-488.9892 744.976,-483.8073 744.976,-483.8073"/>
</g>
<!-- public.market_images -->
<g id="node5" class="node">
<title>public.market_images</title>
<polygon fill="#efefef" stroke="transparent" points="839,-514.5 839,-549.5 1155,-549.5 1155,-514.5 839,-514.5"/>
<polygon fill="none" stroke="#000000" points="839,-514.5 839,-549.5 1155,-549.5 1155,-514.5 839,-514.5"/>
<text text-anchor="start" x="845.7063" y="-527.3" font-family="Arial Bold" font-size="18.00" fill="#000000">public.market_images</text>
<text text-anchor="start" x="1020.7257" y="-527.3" font-family="Arial" font-size="14.00" fill="#000000">    </text>
<text text-anchor="start" x="1054.9305" y="-527.3" font-family="Arial" font-size="14.00" fill="#666666">[BASE TABLE]</text>
<polygon fill="none" stroke="#000000" points="839,-484.5 839,-514.5 1155,-514.5 1155,-484.5 839,-484.5"/>
<text text-anchor="start" x="846" y="-495.9" font-family="Arial" font-size="14.00" fill="#000000">id    </text>
<text text-anchor="start" x="891.094" y="-495.9" font-family="Arial" font-size="14.00" fill="#666666">[uuid]</text>
<polygon fill="none" stroke="#000000" points="839,-454.5 839,-484.5 1155,-484.5 1155,-454.5 839,-454.5"/>
<text text-anchor="start" x="846" y="-465.9" font-family="Arial" font-size="14.00" fill="#000000">market_id    </text>
<text text-anchor="start" x="941.6536" y="-465.9" font-family="Arial" font-size="14.00" fill="#666666">[uuid]</text>
<polygon fill="none" stroke="#000000" points="839,-424.5 839,-454.5 1155,-454.5 1155,-424.5 839,-424.5"/>
<text text-anchor="start" x="846" y="-435.9" font-family="Arial" font-size="14.00" fill="#000000">image_id    </text>
<text text-anchor="start" x="936.9916" y="-435.9" font-family="Arial" font-size="14.00" fill="#666666">[uuid]</text>
<polygon fill="none" stroke="#000000" points="839,-394.5 839,-424.5 1155,-424.5 1155,-394.5 839,-394.5"/>
<text text-anchor="start" x="846" y="-405.9" font-family="Arial" font-size="14.00" fill="#000000">created_at    </text>
<text text-anchor="start" x="946.3422" y="-405.9" font-family="Arial" font-size="14.00" fill="#666666">[timestamp with time zone]</text>
<polygon fill="none" stroke="#000000" points="839,-364.5 839,-394.5 1155,-394.5 1155,-364.5 839,-364.5"/>
<text text-anchor="start" x="846" y="-375.9" font-family="Arial" font-size="14.00" fill="#000000">updated_at    </text>
<text text-anchor="start" x="950.2468" y="-375.9" font-family="Arial" font-size="14.00" fill="#666666">[timestamp with time zone]</text>
</g>
<!-- public.market_images&#45;&gt;public.markets -->
<g id="edge3" class="edge">
<title>public.market_images:market_id&#45;&gt;public.markets:id</title>
<path fill="none" stroke="#000000" d="M828.7791,-468.6435C777.0383,-459.2608 807.0259,-374.9353 839,-322 864.1826,-280.3085 910.8174,-312.6915 936,-271 957.4853,-235.4297 977.5556,-177.5 936,-177.5"/>
<polygon fill="#000000" stroke="#000000" points="829.0349,-468.6648 838.6242,-473.9843 834.0175,-469.0824 839,-469.5 839,-469.5 839,-469.5 834.0175,-469.0824 839.3758,-465.0157 829.0349,-468.6648 829.0349,-468.6648"/>
</g>
</g>
</svg>
